<?xml version="1.0" encoding="UTF-8"?>
<svg id="Laag_1" data-name="Laag 1" xmlns="http://www.w3.org/2000/svg" viewBox="0 0 330.31 77.23">
  <defs>
    <style>
      .cls-1 {
        fill: #fffefc;
      }

      .cls-2 {
        fill: #72202e;
      }
    </style>
  </defs>
  <path class="cls-1" d="M287.1,74.18v2.6c0,.2-.2.3-.4.4-1.5.4-.9-1.6-.9-2.5,0-4,.2-8.2,0-12.1-.2-4.7-1.2-7.8-4.9-9.8-5.3-2.8-12.4-2.7-18.2-1.6-1.1.2-2.4.7-3.4.8-.3,0-.6,0-.8-.2-.4-.4,0-.9.4-1.1,2.4-.7,5-.8,7.4-1.5,3.8-1.1,7.3-2.9,10.6-4.9,1.7-1.1,3.3-2.4,4-4.3.4-1,.3-2.4,0-3.5-1.1-3.7-5.1-4.7-8.3-6-.5-.2-1.5-.6-1-1.3s1.5,0,2.1.1c2,.7,3.3,1.4,5.4,1.3,6.8,0,8.1-5.8,7.7-11.4-.2-5.6-1.1-11.2-1.6-16.8,0-.6-.3-1.2-.2-1.8,0-.7,1.1-.8,1.4-.1.2.4.3.9.4,1.3.5,1.9.8,3.9,1.4,5.8,1.7,5.1,4.7,17,10.9,17.9,3.4.4,7.2-2.5,9.5-5.1.8-.8,1.7-3.3,2.7-3.4.7,0,1,.5.6,1-2,3-4.9,5.7-5.4,9.4-.3,1.8-.3,3.7.4,5.4.6,1.4,1.9,2.4,3.4,2.8,5.1,1.2,9.2-.4,14.1-1.5,1.3-.3,3-.7,4.4-.9h.8c.4,0,.6.2.7.5.1.5-.4.9-.8,1-6.3,2.4-19.8,5.2-18.9,14.1.6,4.8,4.8,7.6,7.7,11.1,1.2,1.4,2.5,2.9,3.8,4.2.2.2.5.3.6.6,0,.3,0,.6-.2.8-.3.4-.8.1-1.2-.2-7.6-8.9-25.6-17.9-31.6-2.7-.5,1.4-1,2.8-1.5,4.2-.6,2-1.1,4-1.2,6.1,0,.5,0,1,.1,1.6h0v-.3ZM277.6,47.38h0c.1,0,.2,0,.4.1,1.9.4,3.8.3,5.5,1.4,1.1.7,2.3,2,3.2,3.1,1,1.2,1.7,2.8,2.1,4.3v.1l.1-.1c.3-.4.5-.8.7-1.3,2.9-5.4,12.9-4.7,17.9-2.4h.2v-.3c-1.2-4.5-.4-9.5,3.3-12.5,0,0-.2-.1-.3-.1-.5-.1-1.1-.2-1.6-.4-4.4-1.8-7.4-7.3-6.7-12v-.3h-.2c-4,1.5-9.1.1-11.5-3.5,0,0,0-.1-.1-.1v.2c-.8,3.9-3.3,7.1-7.1,8.5,0,0-.2,0-.2.2v.2c.7,1.8,1,3.8.9,5.8-.3,3.8-3.1,7.5-6.5,9.2,0,0-.1,0-.1.1h0v-.2Z"/>
  <path class="cls-2" d="M4.5,33.08h.4c1.5-5.1,4.9-8.8,11.1-8.8s12.2,5.7,12.2,15.8-4.5,15.8-11.9,15.8-10.1-3.8-11.5-9h-.3v8.2H0V13.48h4.5s0,19.6,0,19.6ZM23.7,40.08c0-8-3-11.8-9.3-11.8s-9.9,4.1-9.9,10.7v2.3c0,6.3,3.9,10.7,9.9,10.7s9.3-3.9,9.3-11.8v-.1Z"/>
  <path class="cls-2" d="M34.8,55.18v-30.2h4.4v8.1h.4c1.5-5.8,4.7-8.4,9.6-8.4h1.2v4.9h-1.4c-6.7,0-9.7,2.9-9.7,10.1v15.5h-4.5Z"/>
  <path class="cls-2" d="M75.1,47.98h-.5c-1.6,5.1-5.7,7.9-11.1,7.9s-9.5-2.5-9.5-8.3,3.4-8.8,10.6-8.8h10.4v-2.8c0-5-1.9-7.8-7.4-7.8s-7.1,2.3-8.1,6.7l-4.3-1.1c1.4-5.9,5.7-9.4,12.5-9.4s11.8,4,11.8,11.5v19.4h-4.2v-7.2l-.2-.1ZM74.9,44.08v-2.1h-9.9c-4.4,0-6.8,1.8-6.8,5.1s1.6,5,6.4,5,10.2-3.4,10.2-8.1l.1.1Z"/>
  <path class="cls-2" d="M92.1,55.18h-4.5v-30.2h4.4v7.8h.5c1.6-5.2,5.8-8.5,11.2-8.5s10.2,4.5,10.2,11.2v19.7h-4.5v-18.8c0-4.5-1.8-8.1-7.3-8.1s-10.1,3.8-10.1,9.4v17.4l.1.1Z"/>
  <path class="cls-2" d="M143.9,47.08h-.4c-1.5,5.1-5.3,8.8-11.3,8.8s-12-5.6-12-15.7,4.5-15.9,12.1-15.9,9.8,3.8,11.2,8.9h.4V13.48h4.4v41.7h-4.4v-8.1ZM143.9,41.28v-2.3c0-6.4-3.9-10.7-9.9-10.7s-9.4,3.8-9.4,11.8,3,11.7,9.4,11.7,9.9-4.1,9.9-10.5Z"/>
  <path class="cls-2" d="M165.2,55.18l-12.6-30.2h4.9l4.5,11.5c1.9,4.9,3.8,10,5.4,14.7h1.2c1.6-4.6,3.6-9.9,5.5-14.7l4.4-11.5h4.8l-12.4,30.2h-5.7Z"/>
  <path class="cls-2" d="M188.1,55.18v-30.2h4.4v30.2h-4.4Z"/>
  <path class="cls-2" d="M199.8,40.18c0-10,5.9-15.9,14.8-15.9s13.4,5.6,13.4,13.9,0,2-.1,3.2h-23.6c.4,6.8,4,10.7,10.5,10.7s8.1-3.1,9.2-6.9l4,1.2c-1.5,6-5.5,9.6-13.1,9.6s-14.9-5.8-14.9-15.7l-.2-.1ZM204.4,37.88h19.6c-.3-6.3-3.1-9.9-9.4-9.9s-9.5,3.3-10.1,9.9h-.1Z"/>
  <path class="cls-2" d="M261.9,52.78c-.2,0-.4.1-.6.2l.7,2.3h5.8l1.1-3.4c-1.9,0-3.9.3-6,.7-.3,0-.7.2-1.1.3l.1-.1Z"/>
  <path class="cls-2" d="M263.7,48.28c-1-4-2.1-7.9-3.2-11.7l-3.6-11.7h-5.2l-3.5,11.7c-1.4,4.7-2.8,9.8-3.9,14.7h-1.2c-1.2-5.1-2.7-9.7-4.4-14.9l-3.5-11.5h-4.6l9.9,30.2h5.7l4-13.4c1.3-4.3,2.5-8.7,3.4-13.1h.9c1,4.4,2.1,8.8,3.4,13.1l2.2,7.2c.8-.2,1.6-.3,2.4-.4.4,0,.8-.1,1.2-.2h0Z"/>
  <path class="cls-2" d="M275.1,32.78c-.5-.2-1-.4-1.5-.6-.6-.2-1.1-.4-1.7-.7h0c-.2-.1-.4-.2-.6-.3l-1.5,5.3c-1.2,3.9-2.3,7.5-3.3,11.2,1.5-.5,3-1,4.3-1.7l4.3-13.2h0Z"/>
  <path class="cls-2" d="M274,27.78h0s.5.2.7.3c.6.2,1.2.5,1.7.6l1.2-3.7h-4.5l-.7,2.4c.5,0,.9.2,1.3.4.1,0,.2,0,.3.1v-.1Z"/>
</svg>