<?xml version="1.0" encoding="UTF-8"?>
<svg id="Laag_1" data-name="Laag 1" xmlns="http://www.w3.org/2000/svg" viewBox="0 0 177.56 189.89">
  <defs>
    <style>
      .cls-1 {
        fill: #bbd7f2;
      }

      .cls-2 {
        fill: #fffefc;
      }

      .cls-3 {
        fill: #72202e;
      }
    </style>
  </defs>
  <path class="cls-2" d="M176.76,81.16c-1-3.7-4.5-5.8-8.2-6.5-.3-.1-.2-.4-.2-.8v-14.4c0-4,.2-6.9-2.3-10-3.4-4.1-10-4.5-13.9-.9-3.8,3.6-2.4,6.8-3.7,7.8-1.2.4-2.5.1-3.7.2h-12.7c-.2,0-.7,0-.5-.3,2.4-3.4,5.5-7,4-11.6-1.3-4.8-6.9-7.5-11.5-5.8-4.7,1.7-6.5,6-9,9.6-2.7,3.1-8,8.3-11.9,8.1-2.7,0-5.1.4-7.1-1.8-5.6-6.1-8.2-14.6-10.9-22.3-1.5-4.6-3-9-4.2-13.6-1.2-4.5-1.6-9.3-3.5-13.5-4.2-8.9-17.5-6.1-17.4,3.9.6,6.5,1.4,13.2,2.1,19.6.7,8,2.4,16.3,1.8,24.3-.8,2.8-3.7,3.6-6.3,3.4h-28.5c-2.1-.7-.2-3.6-3.7-7.4-5.4-6.2-16-2.6-16.7,5.5-.2,5.9,0,44.4,0,57.2-.1,4.9-7,2.5-8.6,10.6-1,4.9,2.8,9.7,7.8,10.2,2.9.4,5.7-.5,8.5-1.1,2.6-.5,2.9,2.7,3.8,4.4,1.4,3.9,4.8,7,9,7.5,7.1.5,20.5,0,31.1.2,1,0,1.5,1.3,1.5,2.2.7,7.4.4,14.8.3,22.4,0,7.1-2.5,18.6,5.9,21.2,4.5,1.5,10.1-1,11.6-5.7.7-1.9.5-3.9.6-5.9.6-7.3.6-14.8,2.9-20.7,1-2.7,1.8-5.7,3.4-8.2,2.5-3.9,7.4-5.7,11.9-5.4,16.9-.8,31.8,1.4,44,14.3,2,2.3,4.1,4.4,7.3,5,9.2,2,14.3-10,7.4-16-3.7-3.6-6.9-7.6-10.3-11.4-2.9-3.4-7.5-6.4-6.7-11.5,0-1.1.4-1.8.7-2.9,1.4-4.2,3.2-9.7,4.4-13.5.6-1.6.8-3.3,2.1-4.5,1.3-1.3,3.2-1.7,5-1.7,2.5-.1,6.8.2,9.7-.2,3.3-.6,5.9-3.2,6.6-6.5.1-.7.3-1.2.7-1.6.8-.7,2-.9,2.9-1.4,3.9-1.9,6.3-6.5,4.9-10.7h0l-.4.2Z"/>
  <path class="cls-3" d="M31.66,64.06c-6,0-9.4,3.6-10.8,8.6h-.4v-19.1h-4.4v40.7h4.4v-8.1h.3c1.4,5.1,5.2,8.7,11.2,8.7s11.6-5.5,11.6-15.4-4.2-15.5-11.9-15.5v.1ZM30.16,91.06c-5.9,0-9.7-4.2-9.7-10.4v-2.2c0-6.4,3.8-10.4,9.7-10.4s9.1,3.7,9.1,11.5-3,11.5-9.1,11.5Z"/>
  <path class="cls-3" d="M65.26,64.46v4.8h-1.4c-6.5,0-9.4,2.8-9.4,9.9v15.1h-4.4v-29.5h4.2v7.9h.4c1.5-5.7,4.6-8.2,9.4-8.2,0,0,1.2,0,1.2,0Z"/>
  <path class="cls-3" d="M82.06,64.16c-6.7,0-10.8,3.4-12.2,9.1l4.2,1.1c1-4.3,3.5-6.5,7.9-6.5s7.2,2.7,7.2,7.6v2.7h-10.1c-7,0-10.3,3.7-10.3,8.6s3.5,8.1,9.3,8.1,9.3-2.7,10.8-7.7h.5v7h4.1v-18.9c0-7.3-3.5-11.2-11.5-11.2l.1.1ZM89.16,83.46c0,4.5-3.9,7.9-10,7.9s-6.3-2.3-6.3-4.9,2.3-5,6.6-5h9.6v2h.1Z"/>
  <path class="cls-3" d="M127.26,74.96v19.3h-4.4v-18.3c0-4.4-1.8-7.9-7.1-7.9s-9.8,3.7-9.8,9.2v17h-4.4v-29.5h4.3v7.6h.5c1.6-5.1,5.6-8.3,10.9-8.3s9.9,4.4,9.9,10.9h.1Z"/>
  <path class="cls-3" d="M89.16,119.16c0-8.1-4.4-13.6-13.1-13.6s-14.4,5.8-14.4,15.5,5.5,15.3,14.6,15.3,11.3-3.5,12.8-9.4l-3.9-1.1c-1.1,3.7-3.1,6.8-8.9,6.8s-9.8-3.9-10.2-10.5h23.1c.1-1.1.1-2.4.1-3.1l-.1.1ZM65.96,118.86c.6-6.5,4.2-9.7,9.9-9.7s8.9,3.5,9.2,9.7h-19.1Z"/>
  <path class="cls-3" d="M45.86,106.26l-12.1,29.5h-5.4l-12.3-29.5h4.8l4.4,11.2c1.8,4.8,3.7,9.8,5.3,14.4h1.1c1.5-4.5,3.5-9.6,5.3-14.4l4.2-11.2s4.7,0,4.7,0Z"/>
  <rect class="cls-3" x="50.06" y="106.26" width="4.4" height="29.5"/>
  <path class="cls-3" d="M137.56,106.26l-9.6,29.5h-5.7l-3.9-13.1c-1.3-4.2-2.3-8.5-3.4-12.8h-.9c-1,4.3-2.1,8.6-3.4,12.8l-3.9,13.1h-5.6l-9.7-29.5h4.5l3.4,11.2c1.6,5.1,3.1,9.6,4.2,14.6h1.2c1.1-4.8,2.4-9.8,3.8-14.4l3.4-11.4h5.1l3.5,11.4c1.4,4.6,2.8,9.5,3.9,14.4h1.1c1.2-4.9,2.6-9.5,4.1-14.6l3.3-11.2h4.6Z"/>
  <path class="cls-3" d="M156.46,53.56v19.2h-.4c-1.4-5-4.8-8.7-11-8.7s-11.8,5.5-11.8,15.5,4.2,15.3,11.7,15.3,9.6-3.6,11-8.6h.4v7.9h4.3v-40.7h-4.3l.1.1ZM156.46,80.76c0,6.3-3.8,10.3-9.7,10.3s-9.1-3.7-9.1-11.4,3-11.5,9.1-11.5,9.7,4.2,9.7,10.4v2.3-.1Z"/>
  <path class="cls-1" d="M105.66,123.46c-.5,1.8-.9,3.5-1.4,5.3-.5-1.9-1-3.7-1.6-5.6,1,0,2,.2,3,.3Z"/>
  <path class="cls-1" d="M127.96,48.16c-3.2,4.8-7.5,9.4-10.1,14.6h-.6c-4.1,0-7.7,1.8-10.1,5v-4c5.1-2.2,9.9-6.3,13.2-10.1,1.8-1.8,3.9-7.4,6.2-7.8,1.5-.2,2.2,1,1.3,2.3h.1Z"/>
  <path class="cls-1" d="M146.76,89.66c3.7,0,6.4-1.8,7.6-4.8-4.5,1.1-8.7,2.3-13,3,1.2,1.2,3,1.8,5.4,1.8Z"/>
  <path class="cls-1" d="M98.16,130.66c-8.4,1.5-15.7,6.9-20.1,18.1-1.2,3.1-2.4,6.3-3.3,9.5-1.3,4.5-2.5,9.1-2.6,13.8,0,1.2.2,2.3.2,3.5h0c0,1.3.1,3.1.1,4.8v1.2c-.2.4-.5.6-.9.8-3.5,1-2-3.7-2.1-5.5,0-9,.5-18.5,0-27.4-.3-5.9-1.1-10.6-3.1-14.4,2.6,1.9,6,2.9,9.8,2.9,7.5,0,12.4-3.6,14.1-10.4l.3-1.3-3.4-1c2.6-1,5.5-1.6,8.5-1.9l2.4,7.4.1-.1Z"/>
  <path class="cls-1" d="M48.66,76.16v4.1c-1.2-.6-2.5-1.1-3.7-1.6,0-1.4-.1-2.6-.3-3.8,1.4.5,2.7,1,4,1.3Z"/>
  <path class="cls-1" d="M74.96,131.36c-5.2-.5-7-4.1-7.5-7.7h2.4c.6.6,1.2,1.3,1.7,1.9,1.4,1.7,2.5,3.7,3.4,5.8Z"/>
  <path class="cls-1" d="M83.16,127.16c-.8,1.8-1.9,3.1-3.9,3.7,1.1-1.5,2.4-2.7,3.9-3.7Z"/>
  <path class="cls-1" d="M125.06,117.56c.3,2.1.8,4,1.6,5.8-.5,1.8-1,3.6-1.5,5.4-1-4.1-2.1-8-3.2-11.4l-2.6-8.4c1.3-4.2,3.7-8,7.3-11,0-.2-.4-.2-.7-.3-1.2-.3-2.5-.5-3.7-.9-7.7-3.1-13.5-11.4-15-19.9.2-4.4,3.5-7.3,8.4-7.3-.7,4-.7,8.4,1,12.1,1,2.2,2.7,4,4.9,5.2v8.9h7.1v-7.1c1.7.2,3.3.3,5,.2,1.5,3.6,4,6,7.4,7-9.5,4.8-17,11.5-15.9,21.8l-.1-.1Z"/>
  <path class="cls-1" d="M152.16,155.46c-.8.9-1.8.3-2.7-.5-5.6-6.5-13.7-13.1-22.4-17.8h1.9l2.2-6.8c3.5,4.3,7.9,8,11.4,12.3,2.8,3.2,5.5,6.5,8.5,9.5.4.5,1.2.8,1.4,1.5.1.6,0,1.3-.3,1.8h0Z"/>
  <path class="cls-1" d="M61.86,129.46c-1-.8-2.1-1.6-3.4-2.3-.9-.5-1.8-.9-2.7-1.3v-9.9c1.6.2,3.3.5,4.8.9-.2,1.3-.4,2.7-.4,4.1,0,3.2.6,6,1.7,8.4v.1Z"/>
  <path class="cls-1" d="M120.26,133.96c-3.5-1.4-7.1-2.5-10.6-3.1l1.9-6.3c2.4.6,4.6,1.3,6.5,2.1l2.2,7.3Z"/>
  <path class="cls-1" d="M21.56,122.86c-1.5.2-2.9.4-4.4.7-2.5.5-5.5,1.6-7.8,1.7-.6,0-1.3,0-1.8-.4-.9-.8-.1-2.1.9-2.5,3.8-1.2,7.9-1.6,11.8-2.3l1.1,2.8h.2Z"/>
  <path class="cls-1" d="M36.56,114.86l-.8,2.2c-.6,1.6-1.3,3.3-1.9,4.9-1.8,0-3.6,0-5.4.2-.5-1.2-.9-2.4-1.4-3.6,3.2-1,6.4-2.3,9.5-3.7Z"/>
  <path class="cls-1" d="M48.66,108.26v15.2c-2.6-.6-5.2-1-7.9-1.3l5.1-12.3c.9-.5,1.9-1.1,2.8-1.6Z"/>
  <path class="cls-1" d="M167.76,85.66c-1.7.6-3.5,1.3-5.6,2v-4.5c1.4-.3,2.8-.5,4.1-.7.6,0,1.2-.1,1.8,0,.8.1,1.4.6,1.5,1.1.3,1.1-.9,2-1.9,2.2l.1-.1Z"/>
  <path class="cls-1" d="M100.26,65.16v4.9c-2.1.1-4.2,0-6.3-.5-1.7-4.5-6.1-6.8-11.9-6.8,0,0-2.1,0-3.6.3-5.2,1-8.7,4.4-9.9,9.8l-.3,1.3,4,1c-2.3,2.1-5,3.8-8,4.9-.2,0-.4.2-.4.4v.5c1.6,4.1,2.2,8.6,2,13-.5,6.7-4.6,13.5-10.1,17.8v-7h-2.4c2.2-1.9,4-4.1,4.9-6.8.8-2.3.8-5.3,0-8-.6-1.8-1.4-3.3-2.5-4.6v-6.4c0-.9,0-1.6.1-2.4,13.8-1,16.6-13.6,15.7-25.8-.6-12.7-2.6-25.3-3.7-37.9,0-1.4-.6-2.8-.5-4.2.2-1.6,2.4-1.9,3.1-.3.5.9.7,2,.9,3,1.1,4.3,1.7,8.8,3.1,13.1,3.9,11.6,10.6,38.4,24.5,40.4h1.1l.2.3Z"/>
  <path class="cls-1" d="M34.86,73.36c-1,1.7,1.1,2.5,2.3,3,.2,0,.3.1.5.2-.2-1.6-.6-2.9-1.1-3.8-.7,0-1.3,0-1.7.7v-.1Z"/>
</svg>