<?xml version="1.0" encoding="UTF-8"?>
<svg id="Laag_1" data-name="Laag 1" xmlns="http://www.w3.org/2000/svg" viewBox="0 0 177.27 190.3">
  <defs>
    <style>
      .cls-1 {
        fill: #bbd7f2;
      }

      .cls-2 {
        fill: #fffefc;
      }

      .cls-3 {
        fill: #72202e;
      }
    </style>
  </defs>
  <path class="cls-2" d="M176.23,54.9c-1.3,2-3.4,3.4-5.8,4-1.1.3-2.4.6-3.7.9-2.5.6-9.1,2-10.6,3.6.2,1.3,1.8,3.2,3.5,5.1,1,1.2,2,2.3,3,3.7l.8,1.1c.8,1.1,1.7,2.2,2.6,3.3.7.7,1.9,2,2.5,4.2v.3c.7,2.7,0,5.7-1.8,7.8l-.2.2-.2.2c-1.6,1.7-3.8,2.6-6.2,2.6s-4.2-.5-6.6-2.9l-.4-.4-.3-.4c-1.6-2.1-3.6-4.1-5.7-5.8-.4,2.2-1,4.4-1.5,6.5-2.4,8.4-5.8,15.8-10.4,22.4-7,10.4-17.6,15.3-27,19.6-7.9,3.7-15.4,7.2-19.8,13.5l-.2.3c-1.6,2.4-3.9,5.7-7.6,7.8,0,2.1-.7,3.9-1.2,5.1-1,2.4-2.6,4-3.9,5.1-.2,1.6-.7,3.7-2,5.7-.8,1.5-1.9,2.5-2.9,3.3-.2,1.7-.8,3.4-1.7,4.9-2.5,4.9-6.9,6.3-9.3,7-.4.1-.9.3-1.1.4-.1.1-.5.5-.8.8-1.4,1.5-3.7,4.1-7.6,5.1-1,.3-2.1.4-3.2.4-2.4,0-4.4-.6-5.8-1.1-.3,0-.7-.2-1-.3h0c-2.5.6-4.9.9-7.4.9-11.8,0-21.9-7.7-26.7-20.2-.1,0-.2-.2-.3-.3-1.4-1.1-3.7-3.1-4.9-6.4-1.6-4.1-.5-8.1.1-10.2,0-.5-.2-1.5-.3-2.2-.2-1.5-.5-3.1-.5-4.9.2-4.1,2.1-7.9,5.2-10.5.5-3.5,2.4-6.8,5-9,.3-2.4,1.3-4.7,2.7-6.6.7-.9,1.5-1.7,2.2-2.4.3-.3.6-.5.9-.7,0-4.8,2-9.2,3.3-11.6,2.5-6.2,1.6-14.5.7-23.3-1.1-10.4-2.3-21.2,1.7-31.4v-.2C33.33,23.2,58.33,5.2,84.13,5.2s12.8,1.1,18.9,3.2c3.9,1.4,7.4,2.9,10.7,4.5,0-.6-.1-1.1-.2-1.7-.2-.8-.3-2.1-.2-3.6.5-4.3,4.2-7.6,8.6-7.6s6.7,2.1,8.2,5.4c.5,1.1.7,2,.8,2.6v.4c.3.8.5,1.7.6,2.6.2,1.2.4,2.4.7,3.3.2.6.4,1.4.7,2.3.7,2.6,2.9,10.2,4.9,12.6.6-.3,1.5-.8,2.4-1.7,0-.1.1-.2.2-.3,1.2-1.8,3.6-5.4,8.3-5.6h.3c3.6,0,6.6,1.9,8.1,5,1.4,3,1,6.4-1,9-.7.9-1.4,1.8-2.2,2.7-.9,1.1-2.2,2.6-2.3,3.2v.3c0,.2-.1.3-.1.5.8.2,1.6.3,2.5.3,1.5,0,3.3-.3,5.2-.5.9-.1,1.7-.3,2.6-.4h.5c1.5-.2,3.4-.5,5.2-.5h.3c1,0,1.9.1,2.8.4,3.1.8,5.4,3.2,6.3,6.1.7,2.4.3,5-1,7l.3.2Z"/>
  <path class="cls-3" d="M136.33,63.1c.3.2,1.2.2,1.8.3.6,0,1.5.5,1.8.2.2-3.6-1.1-7.7-2-11.2-1.1-3.6-2.6-7.1-4.4-10.2-1.3-1.1-3.5-1.5-4.9-2.7-.5-.2-1.1-.3-.8.6,4.5,6.7,7.4,14.8,8.4,23l.2.2-.1-.2ZM136.83,71.9c-1.5,11.1-4.3,22.4-10.7,31.9-7.9,11.9-21.3,15.9-32.8,22.2-5.5,2.9-10.1,6.6-13.4,12-4.4,7.7-11.8,5.7-19.4,1.7-.7-.5-1.8-1-1.8-1.9,2.8-6.1,7.7-12.1,12.9-16.4,8-6.4,19.5-9.3,23.3-19.6,1.4-3.6.4-7.5-2.3-10.2-1.1-1.3-2.3-1.9-2.5-2.5.5-3.7,1.1-8.8-1.5-12.4-3.5-5.5-11.7-8.3-17.5-5.1-2.9,1.3-4.1,3.3-5.7,3.9-1.2,0-2.2-.7-3.7-.9-3.6-.6-7.3.7-9.4,3.6-6.8,8.7-3.1,20-4.5,30.1-.8,6.3-3.3,12.9-6.3,18.4-.4.8-.8,1.4-1.5,1.4-4.2-1.5-8-4.1-11-7.4-2.4-3.1-1.4-7.2.2-10.5,1.9-3.5,3-7.8,3.2-12.1.7-13.4-4.2-28.3,0-41.5C46.33,21.9,86.43,4.5,117.93,29.8c.9.4,2.3,2.6,2.8.9.2-1.5,0-3.1-1.1-4.1-5.4-4.4-12.4-7.6-19.1-10-30.3-10.6-59.7,10.4-71.1,37-6.7,16.9,4.4,39-2.6,55.2-2,3.6-3.5,8.7-1.6,12.3,0,.3.1.6,0,.8-.4.7-3.1.4-4.5,1.7-.4.3-.8.8-1.1,1.2-1,1.3-1.4,3-1.2,4.5.3,1.5-.5,2.2-1.8,2.7-2,1-3.4,3.3-3.3,5.5,0,1.1.3,2-.2,2.5-.4.5-1.3.7-2.2,1.3-1.6,1.1-2.7,2.9-2.7,4.7,0,2.7,1.3,6.3.5,8.9-.5,1.6-1.1,3.7-.4,5.4.8,2.5,3.8,3.3,4.9,5.7,3.9,11.2,13.1,18.2,24.9,15.2,3.7-1.3,6.6,1.8,10.1,1,2.5-.6,3.7-3.4,5.8-4.8,2.6-1.8,6.2-1.3,7.7-4.5.7-1.2,1-2.6.7-3.9,0-.5-.2-1.3.1-1.7,1.2-1,3.2-1.4,4-3.1,1.5-2,.6-3.8,1.1-5.8,1.3-1.3,3.6-1.9,4.3-4,1.2-2.2.4-4.6-.8-6.5-.3-1.5,2.4-1,3.6-1.6,3.3-.9,5.2-3.9,7-6.5,11.5-16.3,35.2-16.1,46.8-33.1,4.2-6,7.2-12.8,9.2-19.8,1.2-4.4,2.2-9,2.2-13.5,0-1.5-2.2-2.3-3.2-1.6l-.2.2.3-.1ZM65.73,81.6c.1,1.6.2,3.9.3,5.3,0,2.4-.6,5.9-2.5,5.9-.5,0-.8-.2-.9-.4-.9-1.4.9-6.3,2.2-9,.3-.5.6-1.2.9-1.8ZM52.13,98.1c-.9-9.7-.3-21.7,9.3-20.8.9.2,1.6.5,1.2,1.4-3,4.6-8.8,18.4,1.6,18.1,6.8-1.7,6.2-13.3,4.2-18.1-.2-1,.2-1.8.9-2.6,7.2-7.8,20.7-.7,18.3,9.6-.1.5-.4,1.1-.6,1.6-.9,1.4-2.1.9-3.9,1.6-3.3,1.1-6.5,3.2-8.7,5.7-4.7,4.5-1.1,11.6,5.1,9.3,4.1-1.8,7.8-8,9.3-10.8.5-.8,1.1-.4,1.8.3,4.5,5.9-.3,10.9-6.7,15.5-8.8,5-18,8.9-23.4,16-2.5,2.9-4.5,6.1-6.5,9.4-.2.3-.6.7-1,.8-1.4.1-2.6-1.2-3.9-1.8-1.1-.7-2.2-1.1-3.1-1.9-.4-.4-.4-.9-.2-1.4,1-2.1,2.2-4.3,3.1-6.4,3.4-7.8,4.4-15.7,3.3-25.1v-.5l-.1.1ZM84.73,92.2c-.3.6-.7,1.2-1,1.7-1.6,2.6-4.8,6.6-6.5,6.6h0c-.2,0-.5,0-.8-.6-.9-1.6,1.7-4,3.7-5.2,1.2-.7,3.2-1.8,4.6-2.5ZM35.63,178.6c-9.2,2.4-16.1-3.8-18.8-12-.1-.3.2,0,.6.2l1.8,1c5.4,3,13.2,7.3,18.5,10.3.7.1-1.4.3-1.9.4h-.3l.1.1ZM49.83,177.9c-.7,1.9-3.8,2.1-5.3,1.1-1.5-.8-30-16.7-31.5-17.5-1.1-.6-2.3-2.1-2.3-3.5.5-4.2,4.8-3.2,7.3-1.4,4.6,2.6,9.4,5.3,14.8,8.3,5.2,2.9,11.1,6.2,14.9,8.3,1.3.7,2.9,2.8,2.1,4.5v.3-.1ZM60.03,171.4c-.8,1.9-3.8,2.1-5.4,1.1-2.6-1.5-31.2-17.4-40.9-22.8-.8-.4-1.6-1-2.2-1.9-2-3.5,1.9-6,4.9-4.3,6.8,3.8,13.8,7.7,21.6,12,6.8,3.8,14.6,8.2,19.7,11,1.4.7,3,2.8,2.3,4.6v.3h0ZM65.03,162.3c-.8,1.8-3.7,2.1-5.3,1.1-2.1-1.2-38.5-21.5-41.2-23-3.7-1.9-3-7.1,1.5-6.5,1,.2,1.5.4,2.4,1,10.3,5.7,24.5,13.7,34.7,19.4,4.5,2.9,8.8,3.4,8.1,7.8v.3l-.2-.1ZM69.83,153.5c-.8,1.4-3.1,2-4.5,1.2-2.1-1.2-39.7-22.1-42.4-23.7-3.3-1.9-1.7-7.1,2.2-6.2,11.5,5.8,26.4,14.7,37.7,20.8,4.9,3.1,8.4,3.1,7.2,7.6l-.2.3h0Z"/>
  <path class="cls-1" d="M169.53,50.1c0-.3-.3-.5-.7-.6h-.8c-1.5,0-3.4.3-4.8.4-5.2.6-9.7,1.8-15.1,0-1.6-.6-3-1.8-3.6-3.4-.8-1.9-.7-4-.4-5.9.6-3.9,3.8-6.5,6-9.5.5-.6.1-1.2-.6-1.2-1.1,0-2.1,2.6-3,3.4-2.4,2.5-6.5,5.2-10.2,4.3-6.6-1.7-9.6-14.9-11.3-20.7-.6-2.1-.9-4.3-1.4-6.5-.1-.5-.2-1-.4-1.5-.3-.8-1.4-.8-1.5,0,0,.6.2,1.4.2,2,.4,6.1,1.3,12.2,1.4,18.4.3,6.1-1.2,12.3-8.5,11.4-2.3-.2-3.7-1.1-5.8-2.1-.6-.3-1.8-1.1-2.3-.4-.5.7.5,1.2,1.1,1.6,3.4,1.9,7.7,3.4,8.8,7.6.4,1.3.4,2.8,0,3.8-.7,2-2.5,3.3-4.3,4.2-3.6,1.8-7.4,3.3-11.5,4-2.6.5-5.4.3-8,.7-.5.1-.9.7-.5,1.1.2.2.5.3.8.3,1.1,0,2.5-.3,3.7-.4,6.3-.5,13.9.2,19.5,3.9,3.9,2.6,4.9,6.1,5.1,11.2.1,4.3-.1,8.8-.2,13.1,0,.9-.7,3,.9,2.8.2,0,.4-.2.4-.3v-2.8h0v-1.7c.1-2.2.7-4.4,1.4-6.5.5-1.5,1.1-2.9,1.7-4.4,6.7-15.8,25.8-3.8,33.8,6.8.4.4.9.8,1.3.4.2-.2.2-.6.2-.9s-.4-.5-.7-.8c-1.4-1.6-2.7-3.3-4-5-3-4.2-7.5-7.6-8.1-12.9-.9-9.8,13.7-11.1,20.5-13,.5,0,1-.5.9-1v.1ZM145.43,67.9v.3h-.2c-5.3-3-16-5.1-19.2.4-.3.4-.5.9-.8,1.3,0,0,0,.1-.1.1v-.2c-.4-1.7-1.1-3.4-2.2-4.9-1-1.3-2.3-2.8-3.4-3.7-1.8-1.4-3.8-1.6-5.9-2.2-.1,0-.3,0-.4-.2h0l.2-.1c3.6-1.4,6.7-5.1,7.1-9.1.2-2.1-.1-4.3-.8-6.3v-.2s0-.1.2-.2c4-1.1,6.9-4.2,7.7-8.4v-.2l.1.1c2.5,4.2,7.9,6.3,12.3,5.2h.3v.3c-.8,5,2.3,11.4,7,13.8.6.3,1.2.4,1.8.6.1,0,.3.1.3.2-4,2.8-5,8.2-3.7,13.2l-.3.2Z"/>
</svg>