<?xml version="1.0" encoding="UTF-8"?>
<svg id="Laag_1" data-name="Laag 1" xmlns="http://www.w3.org/2000/svg" viewBox="0 0 190.2 125.6">
  <defs>
    <style>
      .cls-1 {
        fill: #bbd7f2;
      }

      .cls-2 {
        fill: #fffefc;
      }

      .cls-3 {
        fill: #72202e;
      }
    </style>
  </defs>
  <path class="cls-2" d="M190.1,54.3c0,29.8-18.1,54-40.3,54s-33-15.1-38.3-37.5v-.5c-4.8,20.8-18.8,36.2-35.6,37.8.6,2.6,0,5.4-1.8,7.4l-.2.2-.2.2c-1.6,1.6-3.7,2.5-5.9,2.5s-4-.5-6.3-2.8l-.4-.4-.3-.4c-3.9-5.1-10.6-9.6-14.4-9.6s-1.2,0-2.1,1.9c-.5,1.3-.9,2.3-1.2,3.3s-.6,2.1-.8,3.1v4c0,.7-.1,1.6-.5,2.7l-.2.4-.2.4c-1,2-2.6,3.5-4.8,4.2l-.6.2h-.7c-.5.2-1,.2-1.5.2-2.4,0-4.8-1-6.3-2.8-1.8-2-2.1-4.3-2.1-5.9s0-1.4.1-1.8c0-1,0-2.1.1-3.1,0-2.6.2-5.4.1-7.8,0-3-.5-3.3-1-3.7-2.2-1.4-5.7-2.2-9.8-2.2s-1.5,0-2.3,0h-.6c-.8.1-1.9.3-3.1.3s-.5,0-.7,0c-2,0-4-.9-5.6-2.3l-.2-.2c-2.1-2.2-2.9-5.3-2.1-8.2.9-2.9,3.3-5.2,6.3-5.9h.2c1.7-.4,3.3-.5,4.7-.5.9,0,1.8,0,2.5-.2,2-.3,3.9-1,5.6-1.8h-.2c-.6-.3-1.2-.6-1.7-.9-1-.5-3.9-2.1-4.8-5.8-.6-2.2-.2-4.6,1.1-6.6l.2-.2.2-.2c1.6-2.1,4-3.3,6.7-3.3s3.9.8,4.7,1.3h-.1.2s1.3.7,1.5.7v-1.7c0-2.9-.4-6-.7-9.1-.2-2.1-.4-4.3-.6-6.6-.1-.8-.3-2-.1-3.4.5-4.1,4.1-7.3,8.3-7.3s.4,0,.6,0C40.4,14.6,55.6,0,73,0s33.3,16,38.5,37.9c0-.2,0-.3.1-.5C116.9,15,132.3,0,149.9,0s40.3,24.2,40.3,54l-.1.3Z"/>
  <path class="cls-3" d="M73,8.1c-14.3,0-26.5,13.2-30.8,31.5-1.1,4.6-1.7,9.6-1.7,14.8s0,3.7.2,5.5c1.5,4.1,3.6,8,6.3,8.7h.9c2.3,0,4.9-1.8,6.6-3.5.2-.2.5-.6.7-1,.7-1.1,1.6-2.4,3-2.5,1,0,1.8.5,2.1,1.2.4.8.2,1.6-.4,2.3-.5.7-1.1,1.4-1.7,2.1-1.5,1.8-2.9,3.4-3.2,5.5-.2,1.2-.4,2.9.2,4.3h0c.8.1,1.7.2,2.5.2,11.2,0,20.3-10.4,20.3-23.2s-9.1-23.2-20.3-23.2-7.8,1.4-11,3.7c4.9-14,14.7-23.7,26.2-23.7,16.2,0,29.3,19.3,29.3,43.1s-13.1,43.1-29.3,43.1-10.1-2-14.3-5.5v1.3c.1,1.2.5,2.3,1.2,3.3,4,2.6,8.5,4,13.2,4,17.9,0,32.5-20.8,32.5-46.3S90.9,7.5,73,7.5v.6ZM70.8,52.4c1.5,0,2.7,1.2,2.7,2.7s-1.2,2.7-2.7,2.7-2.7-1.2-2.7-2.7,1.2-2.7,2.7-2.7ZM62.2,39.7c3.3,0,5.9,2.7,5.9,5.9s-2.7,5.9-5.9,5.9-5.9-2.7-5.9-5.9,2.7-5.9,5.9-5.9ZM43.3,73c2.1,6.9,5.5,13,9.6,17.6.2-1.2.6-2.4,1.2-3.4-3-3.7-5.4-8.3-7.2-13.4-1.2,0-2.4-.3-3.6-.8Z"/>
  <path class="cls-3" d="M149.8,8.1c-14.3,0-26.5,13.2-30.8,31.5-1.1,4.6-1.7,9.6-1.7,14.8s.6,10.1,1.7,14.8c4.3,18.3,16.5,31.5,30.8,31.5s32.5-20.7,32.5-46.3-14.6-46.3-32.5-46.3ZM149.8,97.4c-11.4,0-21.3-9.6-26.2-23.7,3.2,2.4,6.9,3.7,11,3.7,11.2,0,20.3-10.4,20.3-23.2s-.4-5.2-1.1-7.6c-.3-.9-.6-1.8-1-2.6,0-.2-.2-.5-.3-.7-.2-.4-.4-.9-.7-1.3-3.6-6.5-9.9-10.9-17.2-10.9s-7.8,1.4-11,3.7c4.8-14,14.7-23.7,26.2-23.7,16.2,0,29.3,19.3,29.3,43.1s-13.2,43.1-29.3,43.1v.1ZM147.7,52.4c1.5,0,2.7,1.2,2.7,2.7s-1.2,2.7-2.7,2.7-2.7-1.2-2.7-2.7,1.2-2.7,2.7-2.7ZM145,45.6h0c0,3.3-2.7,6-5.9,6s-5.9-2.7-5.9-5.9,2.7-5.9,5.9-5.9,5.6,2.3,5.9,5.3v.6-.1Z"/>
  <path class="cls-1" d="M75.9,81.1c0-.2-.3-.4-.6-.5h-.7c-1.3,0-3,.2-4.2.4-4.6.6-8.5,1.6-13.3,0-1.4-.5-2.6-1.6-3.2-3-.7-1.6-.7-3.5-.3-5.2.5-3.4,3.3-5.7,5.2-8.3.4-.5.1-1-.5-1-.9,0-1.9,2.3-2.6,3-2.1,2.2-5.7,4.6-9,3.8-5.8-1.5-8.4-13.1-10-18.1-.6-1.9-.8-3.8-1.2-5.7-.1-.4-.2-.9-.4-1.3-.3-.7-1.2-.7-1.3,0,0,.6.2,1.2.2,1.8.4,5.4,1.1,10.8,1.3,16.1.3,5.4-1.1,10.8-7.4,10.1-2-.2-3.3-.9-5.1-1.8-.5-.2-1.6-.9-2-.4-.4.7.5,1.1,1,1.4,3,1.7,6.7,3,7.7,6.6.3,1.2.3,2.4,0,3.4-.6,1.8-2.2,2.9-3.8,3.7-3.2,1.6-6.5,2.9-10.1,3.5-2.3.4-4.7.2-7,.7-.4,0-.8.6-.4,1,.2.2.5.2.7.3,1,0,2.2-.3,3.2-.4,5.5-.4,12.2.2,17.2,3.5,3.4,2.3,4.3,5.3,4.4,9.9.1,3.8-.1,7.8-.2,11.5,0,.8-.6,2.7.8,2.4.2,0,.3-.1.4-.3v-2.5h0v-1.5c0-2,.6-3.8,1.2-5.7.4-1.3.9-2.6,1.5-3.9,5.8-13.9,22.7-3.3,29.7,5.9.4.4.8.7,1.1.4.2-.2.2-.5.2-.7,0-.3-.4-.4-.6-.7-1.2-1.4-2.3-2.9-3.5-4.4-2.7-3.7-6.6-6.7-7.1-11.4-.8-8.6,12-9.8,18-11.4.4,0,.9-.4.8-.9l-.1-.3ZM54.6,96.8v.3h-.2c-4.6-2.7-14-4.5-16.9.4-.2.4-.5.8-.7,1.1h-.1v-.1c-.3-1.5-1-3-1.9-4.3-.8-1.1-2-2.5-3-3.3-1.6-1.2-3.4-1.4-5.1-1.9-.1,0-.2,0-.3-.1h.1c3.2-1.2,5.9-4.5,6.2-8,.1-1.8,0-3.8-.7-5.6v-.2s0-.1.2-.1c3.6-1,6-3.7,6.8-7.3v-.1l.1.1c2.2,3.7,7,5.6,10.8,4.6h.2v.3c-.7,4.4,2,10,6.1,12.1.5.2,1,.3,1.5.5.1,0,.3,0,.3.2-3.5,2.5-4.4,7.2-3.3,11.6l-.1-.2Z"/>
</svg>