<?xml version="1.0" encoding="UTF-8"?>
<svg id="Laag_1" data-name="Laag 1" xmlns="http://www.w3.org/2000/svg" viewBox="0 0 189.85 172.6">
  <defs>
    <style>
      .cls-1 {
        fill: #fffdfb;
      }

      .cls-2 {
        fill: #bbd7f2;
      }

      .cls-3 {
        fill: #fffefc;
      }

      .cls-4 {
        fill: #72202e;
      }
    </style>
  </defs>
  <path class="cls-3" d="M178.14,46.4c.5.6,1.2,1.2,1.5,1.7l.5.5c.6.6,1.1,1.3,1.7,1.9,1.2,1,2,2.3,2.5,3.7v.3h.1c.6,2.6,0,5.4-1.5,7.6h0l-.2.3c-1.6,1.8-3.9,2.9-6.3,2.9s-2.5-.2-4-1c-.4-.2-1,0-1.1.6l-2.9,30.4c-.3,3.1-1.5,5.8-3.3,8-.2.2-.2.5-.1.7.7,1.7,1,3.6,1,5.5l.2,6.9c0,3.3-1.2,6.5-3.3,9l-35.6,41.9c-2.8,3.3-7,5.3-11.4,5.3s-1.9-.1-2.9-.3l-102.6-19.6c-6.2-1.2-10.3-6.2-10.3-12.7v-4.4c-.6-4.1.7-8.2,3.5-11.3l39.1-43c.4-.5.9-.9,1.3-1.3.2-.2.3-.4.2-.7-.2-1.2-.3-2.5-.2-3.8l4.4-62.6c.5-7.2,6.5-12.9,13.6-12.9s1.5,0,2.3.2l77.2,13.1h.5v-.5c-.2-.9-.4-2.5,0-4.4.6-2.5,2.4-4.5,4.8-5.5,4.3-1.9,9.1.2,11,4.1.5,1,.7,2,.8,2.4v.2c.2.6.3,1.2.4,1.8.1.7.3,1.4.4,1.9.1.3.3.8.4,1.4.1.4.3.9.5,1.4,0,.3.3.5.6.5l1.3.2c.2,0,.4,0,.6-.2,1.1-.9,2.5-1.8,4.4-2.1h.6l.7-.1c3.2,0,6.1,1.8,7.5,4.7.9,1.9,1.1,4,.5,6l-.2.7c-.2.4-.3.8-.6,1.2l.6-.2c.9-.2,2.2-.5,3.5-.7h1.4c.4,0,1,0,1.4.1,3.4.5,6.1,2.9,6.9,6.1,1.2,4.3-1.2,8.7-5.5,10.3-.8.3-1.7.6-2.6.9-.8.3-2,.7-3.2,1.1-.7.3-1,1.2-.4,1.8h.3Z"/>
  <path class="cls-1" d="M164.04,25.8c-.2.2-.5.4-.8.6-.2.1-.4.3-.6.4-.3.2-.7.4-1.1.5-.1,0-.2,0-.3.1h-.5c-.1,0-.3-.1-.4-.2h-.5c-.1,0-.3,0-.4-.1h-.7c-.8-.7-1.5-1.7-2.1-2.8l5.4.9c.8.1,1.6.5,2.3.9l-.3-.3h0Z"/>
  <path class="cls-1" d="M139.04,30.9c0,.2,0,.3-.1.5v.7c.3.8,1,1.1,1.5,1.3.4.2.8.3,1.2.5,1.4.5,2.7,1.1,3.5,2,.3.3.5.7.6,1.1v1.8c-.3,1-1.2,1.8-2,2.3-.1,0-.2.1-.3.2-.2.2-.5.3-.8.5-1.8,1.1-4.1,2.3-6.6,3-.8.2-1.6.4-2.4.5-.9.1-1.9.3-2.9.6-.6.2-1.1.7-1.2,1.3v.6c0,.3.2.6.5.9.3.2.7.4,1.2.4h.2c.6,0,1.2-.2,1.9-.4h.2c.2,0,.4-.1.5-.1.9-.2,1.8-.3,2.6-.4.9,0,1.7-.1,2.5-.1s1.5,0,2.2.1c.6,0,1.1.1,1.6.2h.3c.8.2,1.6.4,2.2.7.2.1.5.2.7.3.5.3.9.6,1.3.9.1.1.3.3.4.4.1.1.2.3.3.5.4.7.6,1.5.8,2.5,0,.5.1,1.1.2,1.7v8.8c0,.9,0,.2,0,.3v1.4s0,.2.1.3c0,.1.1.3.2.4.2.2.3.3.5.4.2,0,.4.1.7.1h.6s.2,0,.3-.2c0,0,.2-.1.2-.2.2-.1.3-.3.4-.6v-3h0v-.3c0-.5,0-1,.2-1.5,0-.2,0-.3.1-.5,0-.3.2-.7.2-1s.2-.7.3-1c.1-.5.3-.9.5-1.4s.4-1,.6-1.5h0c.1-.3.2-.6.4-.8.1-.3.3-.5.4-.8.1-.2.3-.4.4-.6h0c.1-.2.3-.4.5-.6.3-.4.6-.7,1-1h0c.4-.3.8-.5,1.2-.7l-.2,1.4-3.5,34.2c0,.5-.2,1-.4,1.5-.9,2.3-3.5,3.7-6.2,3.2l-72.4-12-12-2c-.9-.2-1.7-.5-2.4-1-.2-.1-.4-.3-.6-.5s-.4-.5-.6-.7c-.3-.4-.5-.8-.6-1.2,0-.1-.1-.3-.2-.4-.2-.6-.2-1.2-.2-1.8l.4-5.5,3.4-45.9c.2-2.8,2.9-4.9,5.8-4.4l80.2,13.5h0s-.1.1-.2.2c0,0-.1.1-.2.2h0s-.2.2-.3.3c-.2.2-.4.3-.6.4-.2.1-.5.2-.8.3h0c-.4.1-.9.2-1.4.2h-.2c-1.1,0-1.8-.3-2.9-.7,0,0-.3-.1-.5-.2h-.2c-.3-.1-.8-.3-1.2-.3s-.8.2-1.2.5c0,0-.1.1-.2.2,0,0,0,.1-.1.2,0,0,0,.1-.1.2l.7-.4h0Z"/>
  <path class="cls-1" d="M156.44,24l5.4.9c.8.1,1.6.5,2.3.9-.2.2-.5.4-.8.6-.2.1-.4.3-.6.4-.3.2-.7.4-1.1.5-.1,0-.2,0-.3.1h-.2s-.1,0-.2-.1c-.1,0-.3-.1-.4-.2h-.5c-.1,0-.3,0-.4-.1h-.7c-.8-.7-1.5-1.7-2.1-2.8,0,0-.4-.2-.4-.2Z"/>
  <path class="cls-1" d="M158.04,52.5l-3.5,34.2c0,.5-.2,1-.4,1.5-.9,2.3-3.5,3.7-6.2,3.2l-72.4-12-12-2c-.9-.2-1.7-.5-2.4-1-.2-.1-.4-.3-.6-.5s-.4-.5-.6-.7c-.3-.4-.5-.8-.6-1.2,0-.1-.1-.3-.2-.4-.2-.6-.2-1.2-.2-1.8l.4-5.5,3.4-44.9c.2-2.8,2.9-4.8,5.9-4.4l80.1,12.4s-.1.1-.2.2-.1.1-.2.2c0,0-.2.2-.3.3-.2.2-.4.3-.6.4-.2.1-.5.2-.8.3h0c-.4.1-.9.2-1.4.2h-.2c-1.1,0-1.8-.3-2.9-.7,0,0-.3-.1-.5-.2h-.2c-.3-.1-.8-.3-1.2-.3s-.8.2-1.2.5c0,0-.1,0-.2.2,0,0,0,.1-.2.2v.2c0,.1-.1.3-.1.5v.7c.3.8,1,1.1,1.5,1.3.4.2.8.3,1.2.5,1.4.5,2.7,1.1,3.5,2,.3.3.5.7.6,1.1,0,.2,0,.3.1.5v1.3c-.3,1-1.2,1.8-2,2.3-.1,0-.2.1-.3.2-.2.2-.5.3-.8.5-1.8,1.1-4.1,2.3-6.6,3-.8.2-1.6.3-2.4.5-.9.1-1.9.3-2.9.6-.6.2-1.1.7-1.2,1.3v.7c0,.3.2.6.5.9.3.2.7.4,1.2.4h.2c.6,0,1.2-.2,1.9-.4h.2c.2,0,.4-.1.5-.1.9-.2,1.8-.3,2.6-.4.9,0,1.7-.1,2.5-.1s1.5,0,2.2.1c.6,0,1.1.1,1.6.2h.3c.8.2,1.6.4,2.2.7.2.1.5.2.7.3.5.3.9.6,1.3.9.1.1.3.3.4.4.1.1.2.3.3.5.4.7.6,1.5.8,2.5,0,.5.1,1.1.2,1.7v8.7c0,.9,0,.2,0,.3v1.4s0,.2.1.3c0,.1.1.3.2.4.2.2.3.3.5.4.2,0,.4.1.7.1h.6s.2,0,.3-.2c0,0,.2-.1.2-.2.2-.1.3-.3.4-.6v-3h0v-.3c0-.5,0-1,.2-1.5,0-.2,0-.3.1-.5,0-.3.2-.7.2-1s.2-.7.3-1c.1-.5.3-.9.5-1.4s.4-1,.6-1.5h0c.1-.3.2-.6.4-.8.1-.3.3-.5.4-.8.1-.2.3-.4.4-.6h0c.1-.2.3-.4.5-.6.3-.4.6-.7,1-1h0c.5-.3,1.1.2,1,.8l.6-.4h0Z"/>
  <path class="cls-4" d="M52.54,140.2l32,6.5c1.1.2,2.3-.2,2.9-1.1l5.9-8.1c1.1-1.5.2-3.7-1.6-4l-32.3-5.8c-.9-.2-1.9.2-2.4.9l-6,7.5c-1.2,1.5-.4,3.7,1.5,4.1h0Z"/>
  <path class="cls-4" d="M67.24,111.5l1.5-2.3c.3-.5,0-1.2-.6-1.3l-8.9-1.7c-.3,0-.7,0-.9.4l-1.6,2.3c-.4.5,0,1.2.5,1.3l9,1.7c.3,0,.7,0,.9-.4h.1Z"/>
  <path class="cls-4" d="M114.64,108.5l2.7-3.6c.4-.5.1-1.2-.5-1.4l-5.6-1.1c-.3,0-.6,0-.8.3l-2.7,3.6c-.4.5-.1,1.2.5,1.4l5.6,1.1c.3,0,.6,0,.8-.3Z"/>
  <path class="cls-4" d="M80.54,115.8l-7.9-1.5c-.3,0-.6,0-.8.3l-1.8,2.3c-.4.5-.1,1.2.5,1.4l7.9,1.5c.3,0,.6,0,.8-.3l1.8-2.3c.4-.5.1-1.2-.5-1.4Z"/>
  <path class="cls-4" d="M69.44,113.7l-8-1.5c-.3,0-.6,0-.8.3l-1.8,2.3c-.4.5-.1,1.2.5,1.4l8,1.5c.3,0,.6,0,.8-.3l1.8-2.3c.4-.5.1-1.2-.5-1.4Z"/>
  <path class="cls-4" d="M49.44,114.3l6.7,1.3c.3,0,.6,0,.8-.3l1.8-2.3c.4-.5.1-1.2-.5-1.4l-6.7-1.3c-.3,0-.6,0-.8.3l-1.8,2.3c-.4.5-.1,1.2.5,1.4Z"/>
  <path class="cls-4" d="M88.34,117.3l-4.5-.9c-.3,0-.6,0-.8.3l-1.8,2.3c-.4.5-.1,1.2.5,1.4l4.5.9c.3,0,.6,0,.8-.3l1.8-2.3c.4-.5.1-1.2-.5-1.4Z"/>
  <path class="cls-4" d="M105.94,120.6l-5.6-1.1c-.3,0-.6,0-.8.3l-1.8,2.3c-.4.5-.1,1.2.5,1.4l5.6,1.1c.3,0,.6,0,.8-.3l1.8-2.3c.4-.5.1-1.2-.5-1.4Z"/>
  <path class="cls-4" d="M132.84,113.7l-7.1-1.3c-.3,0-.7,0-.9.4l-2,3.1c-.3.5,0,1.2.6,1.3l6.9,1.3c.3,0,.7,0,.9-.4l2.1-3.1c.4-.5,0-1.2-.5-1.3Z"/>
  <path class="cls-4" d="M126.34,110.7l2.7-3.6c.4-.5.1-1.2-.5-1.4l-8.5-1.6c-.3,0-.6,0-.8.3l-2.7,3.6c-.4.5-.1,1.2.5,1.4l8.5,1.6c.3,0,.6,0,.8-.3Z"/>
  <path class="cls-4" d="M117.64,122.9l-8.5-1.6c-.3,0-.6,0-.8.3l-1.8,2.3c-.4.5-.1,1.2.5,1.4l8.5,1.6c.3,0,.6,0,.8-.3l1.8-2.3c.4-.5.1-1.2-.5-1.4Z"/>
  <path class="cls-4" d="M127.44,119.1l-7.3-1.4c-.4,0-.8.1-.9.5l-1.1,2.4c-.2.5,0,1.1.6,1.2l7.2,1.4c.4,0,.8-.1.9-.5l1.2-2.4c.2-.5,0-1.1-.6-1.2h0Z"/>
  <path class="cls-4" d="M97.14,119l-5.6-1.1c-.3,0-.6,0-.8.3l-1.8,2.3c-.4.5-.1,1.2.5,1.4l5.6,1.1c.3,0,.6,0,.8-.3l1.8-2.3c.4-.5.1-1.2-.5-1.4Z"/>
  <path class="cls-4" d="M57.24,104.6l7.4,1.4c.3,0,.7,0,.9-.4l2-3.2c.3-.5,0-1.2-.6-1.3l-7.4-1.4c-.3,0-.7,0-.9.4l-2,3.2c-.3.5,0,1.2.6,1.3Z"/>
  <path class="cls-4" d="M69.44,112.5l9.6,1.8c.4,0,.8-.1.9-.5l1.1-2.4c.2-.5,0-1.1-.6-1.2l-9.2-1.7c-.3,0-.7,0-.9.4l-1.5,2.3c-.3.5,0,1.2.6,1.3h0Z"/>
  <path class="cls-4" d="M105.54,114.9l-9.6-1.8c-.4,0-.7.1-.9.4l-1.3,2.4c-.3.5,0,1.1.6,1.3l9.5,1.8c.4,0,.7-.1.9-.4l1.3-2.4c.3-.5,0-1.2-.6-1.3h.1Z"/>
  <path class="cls-4" d="M92.94,112.6l-9.5-1.8c-.4,0-.8.1-.9.5l-1.1,2.4c-.2.5,0,1.1.6,1.2l9.4,1.8c.4,0,.7-.1.9-.4l1.3-2.4c.3-.5,0-1.1-.6-1.3,0,0-.1,0-.1,0Z"/>
  <path class="cls-4" d="M136.24,112.6l2.7-3.6c.4-.5.1-1.2-.5-1.4l-6.6-1.3c-.3,0-.6,0-.8.3l-2.7,3.6c-.4.5-.1,1.2.5,1.4l6.6,1.3c.3,0,.6,0,.8-.3Z"/>
  <path class="cls-4" d="M117.24,117.1l-8.6-1.6c-.4,0-.7.1-.9.4l-1.3,2.4c-.3.5,0,1.2.6,1.3l8.9,1.7c.4,0,.8-.1.9-.5l1.1-2.4c.2-.5,0-1.1-.6-1.2,0,0-.1-.1-.1-.1Z"/>
  <path class="cls-4" d="M122.64,111.7l-8.5-1.6c-.3,0-.7,0-.9.4l-2,3.1c-.3.5,0,1.2.6,1.3l8.5,1.6c.3,0,.7,0,.9-.4l2-3.1c.3-.5,0-1.2-.6-1.3Z"/>
  <path class="cls-4" d="M78.44,108.6l7.9,1.5c.3,0,.7,0,.9-.4l2-3.1c.3-.5,0-1.2-.6-1.3l-7.9-1.5c-.3,0-.7,0-.9.4l-2,3.2c-.3.5,0,1.2.6,1.3v-.1Z"/>
  <path class="cls-4" d="M67.74,106.6l7.6,1.4c.3,0,.7,0,.9-.4l2-3.2c.3-.5,0-1.2-.6-1.3l-7.6-1.4c-.3,0-.7,0-.9.4l-2,3.2c-.3.5,0,1.2.6,1.3Z"/>
  <path class="cls-4" d="M89.44,110.7l6.6,1.2c.3,0,.7,0,.9-.4l2-3.1c.3-.5,0-1.2-.6-1.3l-6.6-1.3c-.3,0-.7,0-.9.4l-2,3.1c-.3.5,0,1.2.6,1.3v.1Z"/>
  <path class="cls-4" d="M99.14,112.5l9.5,1.8c.3,0,.7,0,.9-.4l2-3.1c.3-.5,0-1.2-.6-1.3l-9.5-1.8c-.3,0-.7,0-.9.4l-2,3.1c-.3.5,0,1.2.6,1.3Z"/>
  <path class="cls-4" d="M105.84,106.8l2.7-3.6c.4-.5.1-1.2-.5-1.4l-5.6-1.1c-.3,0-.6,0-.8.3l-2.7,3.6c-.4.5-.1,1.2.5,1.4l5.6,1.1c.3,0,.6,0,.8-.3Z"/>
  <path class="cls-4" d="M103.44,126.4l-1.2,2c-.3.5,0,1.2.6,1.3l5.8,1.1c.4,0,.7-.1.9-.4l1.1-2c.3-.5,0-1.2-.6-1.3l-5.7-1.1c-.4,0-.7,0-.9.4Z"/>
  <path class="cls-4" d="M112.14,128.1l-1.1,2c-.3.5,0,1.1.6,1.3l7.3,1.4c.3,0,.7,0,.9-.4l1.3-2c.3-.5,0-1.2-.6-1.3l-7.5-1.4c-.4,0-.7.1-.9.4Z"/>
  <path class="cls-4" d="M51.04,116.4l-1.1,1.9c-.3.5,0,1.2.6,1.3l4.2.8c.4,0,.7,0,.9-.4l1.2-1.9c.3-.5,0-1.2-.6-1.3l-4.3-.8c-.4,0-.7,0-.9.4Z"/>
  <path class="cls-4" d="M58.44,117.8l-1.2,1.9c-.3.5,0,1.2.6,1.3l42,8c.4,0,.7,0,.9-.4l1.2-2c.3-.5,0-1.2-.6-1.3l-42-8c-.4,0-.7,0-.9.4,0,0,0,.1,0,.1Z"/>
  <path class="cls-4" d="M128.94,123.8l4,.8c.3,0,.6,0,.8-.3l2-2.3c.4-.5.2-1.3-.5-1.4l-4.9-.9c-.4,0-.8.1-.9.5l-1.2,2.5c-.2.5,0,1.1.6,1.2l.1-.1h0Z"/>
  <path class="cls-4" d="M133.54,119l3.7.7c.3,0,.6,0,.8-.3l2.6-3c.4-.5.2-1.3-.5-1.4l-4.2-.8c-.3,0-.7,0-.9.4l-2.1,3c-.4.5,0,1.2.5,1.3l.1.1h0Z"/>
  <path class="cls-4" d="M144.24,108.7l-2.6-.5c-.3,0-.6,0-.8.3l-2.7,3.6c-.4.5-.1,1.2.5,1.4l3.5.7c.3,0,.6,0,.8-.3l2-2.3c.7-.8.6-2-.3-2.7s-.2-.1-.4-.2Z"/>
  <path class="cls-4" d="M42.74,114.8l-1.3,1.9c-.4.5,0,1.2.5,1.3l5.5,1c.4,0,.7,0,.9-.4l1.1-1.9c.3-.5,0-1.2-.6-1.3l-5.2-1c-.3,0-.7,0-.9.3v.1Z"/>
  <path class="cls-4" d="M118.84,127.5l9.9,1.9c.3,0,.6,0,.8-.3l2-2.2c.4-.5.2-1.3-.5-1.4l-10.2-1.9c-.3,0-.6,0-.8.3l-1.8,2.3c-.4.5-.1,1.2.5,1.4,0,0,.1-.1.1-.1Z"/>
  <path class="cls-4" d="M122.14,133.3l2.7.5c.3,0,.6,0,.8-.3l1.7-1.9c.4-.5.2-1.3-.5-1.4l-3.1-.6c-.3,0-.7,0-.9.4l-1.3,2c-.3.5,0,1.2.6,1.3h0Z"/>
  <path class="cls-4" d="M78.14,101.5l2.7-3.6c.4-.5.1-1.2-.5-1.4l-8-1.5c-.3,0-.6,0-.8.3l-2.7,3.6c-.4.5-.1,1.2.5,1.4l8,1.5c.3,0,.6,0,.8-.3Z"/>
  <path class="cls-4" d="M89.24,103.6l2.7-3.6c.4-.5.1-1.2-.5-1.4l-7.9-1.5c-.3,0-.6,0-.8.3l-2.7,3.6c-.4.5-.1,1.2.5,1.4l7.9,1.5c.3,0,.6,0,.8-.3Z"/>
  <path class="cls-4" d="M66.94,99.4l2.7-3.6c.4-.5.1-1.2-.5-1.4l-6.7-1.3c-.3,0-.6,0-.8.3l-2.7,3.6c-.4.5-.1,1.2.5,1.4l6.7,1.3c.3,0,.6,0,.8-.3Z"/>
  <path class="cls-4" d="M97.04,105.1l2.7-3.6c.4-.5.1-1.2-.5-1.4l-4.5-.9c-.3,0-.6,0-.8.3l-2.7,3.6c-.4.5-.1,1.2.5,1.4l4.5.9c.3,0,.6,0,.8-.3Z"/>
  <path class="cls-4" d="M48.24,109.7l-7.1-1.3c-.3,0-.6,0-.8.2l-2.1,2.2c-.5.5-.2,1.3.5,1.4l7.4,1.4c.3,0,.6,0,.8-.3l1.8-2.3c.4-.5.1-1.2-.5-1.4v.1h0Z"/>
  <path class="cls-4" d="M59.14,92.6l-2.3-.4c-.3,0-.6,0-.8.2l-3.3,3.4c-.5.5-.2,1.3.5,1.4l2.9.6c.3,0,.6,0,.8-.3l2.7-3.6c.4-.5.1-1.2-.5-1.4,0,0,0,.1,0,.1Z"/>
  <path class="cls-4" d="M56.04,105.6l-10.3-2c-.3,0-.6,0-.8.2l-2.1,2.1c-.5.5-.2,1.3.5,1.4l10.9,2.1c.3,0,.7,0,.9-.4l1.5-2.3c.4-.5,0-1.2-.6-1.3v.2h0Z"/>
  <path class="cls-4" d="M35.84,113.3l-.8.8c-.1.1-.2.2-.2.4-.3,1.2.4,2.2,1.4,2.4l2.5.5c.3,0,.7,0,.9-.3l1.3-1.9c.4-.5,0-1.2-.5-1.3l-3.8-.7c-.3,0-.6,0-.8.2,0,0,0-.1,0-.1Z"/>
  <path class="cls-4" d="M56.44,99.1l-5.4-1c-.3,0-.6,0-.8.2l-2.9,3c-.5.5-.2,1.3.5,1.4l6.3,1.2c.3,0,.7,0,.9-.4l2-3.2c.3-.5,0-1.2-.6-1.3v.1Z"/>
  <path class="cls-4" d="M158.24,51.1l-.2,1.4-3.5,34.2c0,.5-.2,1-.4,1.5-.9,2.3-3.5,3.7-6.2,3.2l-72.4-12-12-2c-.9-.2-1.7-.5-2.4-1-.2-.1-.4-.3-.6-.5s-.4-.5-.6-.7c-.3-.4-.5-.8-.6-1.2,0-.1-.1-.3-.2-.4-.2-.6-.2-1.2-.2-1.8l.4-5.5,3.4-45.9c.2-2.8,2.9-4.9,5.8-4.4l80.2,13.5h0s-.1.1-.2.2c0,0-.1.1-.2.2h0s-.2.2-.3.3c-.2.2-.4.3-.6.4-.2.1-.5.2-.8.3h0c-.4.1-.9.2-1.4.2h-.2c-1.1,0-1.8-.3-2.9-.7,0,0-.3-.1-.5-.2h-.2c-.3-.1-.8-.3-1.2-.3s-.8.2-1.2.5c0,0-.1.1-.2.2,0,0,0,.1-.1.2,0,0,0,.1-.1.2,0,.2,0,.3-.1.5v.7c.3.8,1,1.1,1.5,1.3.4.2.8.3,1.2.5,1.4.5,2.7,1.1,3.5,2,.3.3.5.7.6,1.1v1.8c-.3,1-1.2,1.8-2,2.3-.1,0-.2.1-.3.2-.2.2-.5.3-.8.5-1.8,1.1-4.1,2.3-6.6,3-.8.2-1.6.4-2.4.5-.9.1-1.9.3-2.9.6-.6.2-1.1.7-1.2,1.3v.6c0,.3.2.6.5.9h0c.3.3.7.4,1.2.4h.2c.6,0,1.2-.2,1.9-.4h.2c.2,0,.4,0,.5-.1.9-.2,1.8-.3,2.6-.4.9,0,1.7-.1,2.5-.1s1.5,0,2.2.1c.6,0,1.1.1,1.6.2h.3c.8.2,1.6.4,2.2.7.2.1.5.2.7.3.5.3.9.6,1.3.9.1.1.3.3.4.4.1.1.2.3.3.5.4.7.6,1.5.8,2.5,0,.5.1,1.1.2,1.7v8.8c0,.9,0,.2,0,.3v1.4s0,.2.1.3c0,.1.1.3.2.4.2.2.3.3.5.4.2,0,.4.1.7.1h.6s.2,0,.3-.2c0,0,.2-.1.2-.2.2-.1.3-.3.4-.6v-3h0v-.3c0-.5,0-1,.2-1.5,0-.2,0-.3.1-.5,0-.3.2-.7.2-1s.2-.7.3-1c.1-.4.3-.9.5-1.4s.4-1,.6-1.5h0c.1-.3.2-.6.4-.8.1-.3.3-.5.4-.8.1-.2.3-.4.4-.6h0c.1-.2.3-.4.5-.6.3-.4.7-.7,1.1-1h0c.4-.3.8-.5,1.2-.7l.6-.4h0Z"/>
  <path class="cls-4" d="M159.74,35.9l-1,10.1c-2.6.2-4.6,1.1-5.9,2.5-.3-.5-.6-1-.9-1.4-.5-.6-1.6-1.8-2.6-2.4-.6-.4-1.3-.6-1.9-.8,1.7-1.6,2.8-3.8,3-5.9,0-1.3,0-2.6-.4-3.7,1.7-.8,3-2.2,3.9-3.8l1.6.3c2.6.4,4.5,2.7,4.2,5.2v-.1h0Z"/>
  <path class="cls-4" d="M161.74,24.9l-5.4-.9c.6,1.1,1.3,2.1,2.1,2.7h.7c.2.1.3.2.4.2h.5c.2,0,.3.1.4.2,0,0,.2,0,.2.1h.3c.1,0,.2,0,.3-.1.4-.1.7-.3,1.1-.5.2-.1.4-.2.6-.4.3-.2.5-.4.8-.6-.7-.5-1.4-.8-2.3-.9l.3.2h0ZM163.24,37l-.9,9c.8.1,1.6.3,2.3.5-.2-2,0-4,.9-5.7h0l.2-1.6c-1-.6-1.8-1.3-2.5-2.3v.1ZM164.24,51h-.2c-.2,0-.5-.1-.7-.2-.2,0-.5,0-.7-.1h-.6v.7l-4,40.5h0c0,.4-.1.8-.2,1.2-.3,1.1-.9,2-1.7,2.8-1.1,1-2.5,1.5-4,1.5s-.7,0-1.1,0l-77.4-13.7-13.7-2.4h-.1c-.3,0-.6-.2-.9-.3h0c-.5-.2-.9-.4-1.4-.7-.1,0-.3-.2-.4-.3-.1-.1-.3-.2-.4-.4,0,0-.1-.1-.2-.2-.2-.2-.3-.4-.5-.6-.8-1.1-1.2-2.5-1-3.9h0l4.2-58.2v-.5c0-.5.3-1,.5-1.5h0c.2-.3.3-.6.5-.9s.4-.5.7-.8c1.2-1.1,2.9-1.7,4.6-1.4l84.5,14h0v-2.4h0L63.34,8.5c-1.3-.2-2.5,0-3.5.6h0c-.5.2-.9.6-1.3.9-1,1-1.7,2.4-1.8,4l-4.4,62.6v1c0,.4,0,.7.2,1.1.1.5.3,1,.5,1.4v.1c0,.1.2.3.2.4,0,.2.2.3.3.4,0,.1.2.2.3.4.1.2.3.3.4.5.2.2.4.4.7.6.1,0,.2.2.3.2,0,0,.2.1.3.2.4.2.9.4,1.4.6-.1.6-.3,1.2-.4,1.8v.5h0l-2-.4h-1c-1.1,0-2.1.3-3,.8-.4.2-.7.5-1,.7-.2.1-.3.3-.5.4l-39.1,43c-.3.3-.5.6-.7.9h0c-.3.5-.5,1-.7,1.5-.3,1-.3,1.9,0,2.9v5.1c0,1.2.3,2.2.9,3,.1.2.2.3.4.5.6.7,1.5,1.1,2.6,1.3l16.5,3.2,86.1,16.5h1.3c1.5,0,3-.5,4.2-1.4.2-.1.4-.3.6-.5s.4-.4.5-.5l35.5-41.9c.2-.3.4-.6.6-.9,0-.2.2-.3.2-.5.1-.3.3-.7.4-1,.1-.5.2-1,.2-1.6v-.2l-.2-6.8c0-.8,0-1.6-.3-2.4-.3-1-.9-1.8-1.7-2.5-.1-.1-.3-.2-.4-.3-.7-.5-1.5-.9-2.5-1.1h-.4c.2-.8.3-1.5.5-2.3v-.3h0c1.9.3,3.8-.3,5.1-1.6.2-.1.3-.3.4-.4.2-.3.5-.6.7-.9.5-.8.9-1.8,1-2.9l4.1-43.6c-.2,0-.3,0-.5-.1l-.1-.5h0ZM58.84,83.8v-.3h0l92.4,16.7c-.2.8-.3,1.5-.5,2.3v.3h0l-92.3-17.1c.1-.6.3-1.2.4-1.9ZM115.04,162.5l-102.6-19.6c-1.4-.3-2.2-1.2-2.2-2.8v-1.7c.7.6,1.6,1,2.6,1.2l100.8,19.3c.7.1,1.4.1,2.1,0v3.7h-.8l.1-.1h0ZM156.14,113.7v2.8c0,.9-.2,1.8-.8,2.5l-35.6,41.8c-.5.6-1.1,1-1.8,1.3v-4.1c.5-.3,1-.7,1.5-1.2l36.7-43.2s0,.1,0,.1ZM154.64,111.7l-37.4,42.9c-1.2,1.4-3.1,2-4.9,1.7l-97.6-18.1c-4-.7-5.6-5.5-2.9-8.4l38.2-40.9c1.2-1.3,3-1.9,4.8-1.6l97.4,17.6c3.3.6,4.6,4.4,2.5,6.8,0,0-.1,0-.1,0Z"/>
  <path class="cls-2" d="M68.04,35.8v-.4c.9-.1,2-.3,2.7-.5l3-.6.2-1.4-6.7,1.9-.2,1.3,5.8,3.8.2-1.4-2.7-1.5c-.7-.4-1.6-.8-2.4-1.2,0,0,.1,0,.1,0Z"/>
  <polygon class="cls-2" points="73.44 42.4 74.74 42.6 79.34 31.7 78.14 31.5 73.44 42.4"/>
  <polygon class="cls-2" points="81.84 41.5 83.14 41.7 83.64 38.4 87.54 39 87.74 37.8 83.84 37.2 84.24 34.3 88.64 35 88.84 33.8 83.14 32.9 81.84 41.5"/>
  <rect class="cls-2" x="85.69" y="37.54" width="9.3" height="1.3" transform="translate(38.79 121.63) rotate(-81.2)"/>
  <path class="cls-2" d="M93.64,43.5c1.2.2,2.1-.3,2.6-1.4h.1l-.2,1.6,1.2.2.7-4.3c.3-1.7-.4-2.7-2.3-3-1.6-.2-2.7.4-3.1,1.6l1.1.5c.4-.9.9-1.2,1.8-1.1,1.1.2,1.4.8,1.2,1.8v.5l-2.2-.3c-1.6-.3-2.5.5-2.7,1.6-.2,1.3.5,2,1.8,2.2v.1ZM94.54,40.6l2,.3v.4c-.2.9-1.1,1.5-2.3,1.3-1-.2-1.2-.7-1.2-1.2.1-.7.7-.9,1.5-.8Z"/>
  <path class="cls-2" d="M101.74,43.8c-1.3-.2-1.6-.9-1.7-1.8h-1.2c0,1.4.7,2.4,2.7,2.7,1.9.3,2.8-.4,3-1.6.2-1.1-.4-1.8-2.2-2.4-1.3-.4-1.6-.8-1.5-1.4,0-.6.6-.9,1.5-.7.9.1,1.3.5,1.4,1.5h1.2c-.1-1.3-.6-2.2-2.4-2.4-1.7-.3-2.7.4-2.9,1.5-.2,1.1.4,1.8,2.1,2.4,1.4.5,1.8.8,1.7,1.4-.1.6-.6.9-1.6.8h-.1Z"/>
  <path class="cls-2" d="M107.44,41.6c.2-1.1,1.1-1.8,2.3-1.6,1,.2,1.3.9,1.2,1.8l-.6,4.1,1.2.2.7-4.4c.2-1.5-.3-2.5-1.8-2.8-1.2-.2-2.2.4-2.7,1.5h-.1l.7-4.2-1.2-.2-1.4,9.2,1.2.2.6-3.8s-.1,0-.1,0Z"/>
  <rect class="cls-2" x="113.91" y="42.94" width="6.8" height="1.3" transform="translate(56.28 152.85) rotate(-81.2)"/>
  <path class="cls-2" d="M119.94,45.4c-.2,1.2.3,2.3,1.7,2.5h1.5v-1.1h-1c-.7-.1-1-.5-.9-1.3l.5-3.5,2.1.3.2-1-2.1-.3.3-1.9-1.2-.2-.3,1.9-1-.2-.2,1,1,.2-.6,3.7v-.1Z"/>
  <rect class="cls-2" x="124.12" y="46.61" width="1.5" height="1.6" transform="translate(58.91 163.56) rotate(-81.2)"/>
  <path class="cls-2" d="M101.84,63.2c-2.7-.4-4.5,1.1-4.9,3.8s.8,4.7,3.6,5.1c2.7.4,4.5-1.2,4.9-3.8.4-2.7-.9-4.7-3.6-5.1ZM104.04,68c-.3,2-1.4,3.2-3.5,2.9-2-.3-2.7-1.8-2.4-3.8.3-1.9,1.4-3.1,3.4-2.8,2,.3,2.7,1.8,2.4,3.7,0,0,.1,0,.1,0Z"/>
  <path class="cls-2" d="M115.44,67.4l-1.1,2.5c-.5,1.1-.9,2-1.3,3h-.3c0-1.1-.2-2.2-.3-3.3l-.3-2.7-1.4-.2-1.1,2.5c-.4.9-.9,2-1.2,3h-.3c0-1.1-.2-2.2-.4-3.3l-.3-2.7-1.3-.2,1.1,7,1.6.2,1.2-2.8c.4-.9.8-1.8,1.1-2.7h.2c0,1,.1,2,.2,2.9l.3,3.1,1.6.3,3.1-6.4-1.2-.2h.1Z"/>
  <path class="cls-2" d="M121.44,68.1c-1.2-.2-2.2.4-2.7,1.5h-.1l.3-1.7-1.2-.2-1,6.7,1.2.2.6-3.8c.2-1.1,1.1-1.8,2.3-1.6,1.1.2,1.3.9,1.2,1.8l-.6,4.1,1.2.2.7-4.4c.2-1.5-.3-2.5-1.8-2.8,0,0-.1,0-.1,0Z"/>
  <rect class="cls-2" x="124.94" y="72.24" width="6.8" height="1.3" transform="translate(36.67 188.57) rotate(-81.2)"/>
  <path class="cls-2" d="M132.74,71.1l2.1.3.2-1-2.1-.3.3-1.9-1.2-.2-.3,1.9-1-.2-.2,1,1,.2-.6,3.7c-.2,1.2.3,2.3,1.7,2.5h1.5v-1.1h-1c-.7-.1-1-.5-.9-1.3l.5-3.5v-.1Z"/>
  <rect class="cls-2" x="135.06" y="75.81" width="1.5" height="1.6" transform="translate(39.32 199.1) rotate(-81.2)"/>
  <polygon class="cls-2" points="144.24 69.3 139.64 80.2 140.94 80.4 145.54 69.5 144.24 69.3"/>
  <path class="cls-2" d="M145.94,71.6l-.2,1.4,2.7,1.5c.7.4,1.6.9,2.4,1.2v.4c-.9.1-2,.3-2.7.5l-3,.6-.2,1.4,6.7-1.9.2-1.3-5.8-3.8h-.1,0Z"/>
  <path class="cls-2" d="M94.34,48.4l-3.3-.5-1.3,8.6,1.3.2.5-3.1,2.1.3c1.9.3,3.2-.7,3.4-2.3s-.6-2.9-2.6-3.2h-.1ZM95.64,51.5c-.2,1.1-.8,1.6-2.1,1.4l-1.9-.3.5-3.3,1.9.3c1.4.2,1.8.8,1.6,1.9Z"/>
  <path class="cls-2" d="M100.04,58.3c2.1.3,3.6-.8,3.9-3s-.8-3.7-2.8-4-3.5.8-3.9,3c-.3,2.2.7,3.7,2.8,4ZM98.44,54.4c.2-1.5,1.1-2.3,2.5-2.1s2,1.2,1.7,2.7c-.2,1.5-1.1,2.3-2.5,2.1s-1.9-1.3-1.7-2.8v.1Z"/>
  <path class="cls-2" d="M107.44,56.2c1.4.5,1.8.8,1.7,1.4-.1.6-.6.9-1.6.8-1.3-.2-1.6-.9-1.7-1.8h-1.2c0,1.4.7,2.4,2.7,2.7,1.9.3,2.8-.4,3-1.6.2-1.1-.4-1.8-2.2-2.4-1.3-.4-1.6-.8-1.5-1.4,0-.6.6-.9,1.5-.7.9.1,1.3.5,1.4,1.5h1.2c-.1-1.3-.6-2.2-2.4-2.4-1.7-.3-2.7.4-2.9,1.5-.2,1.1.4,1.8,2.1,2.4h-.1Z"/>
  <path class="cls-2" d="M111.54,54.1l1,.2-.6,3.7c-.2,1.2.3,2.3,1.7,2.5h1.5v-1.1h-1c-.7-.1-1-.5-.9-1.3l.5-3.5,2.1.3.2-1-2.1-.3.3-1.9-1.2-.2-.3,1.9-1-.2-.2,1v-.1Z"/>
  <rect class="cls-2" x="117" y="57.15" width="6.8" height="1.3" transform="translate(44.86 167.94) rotate(-81.2)"/>
  <path class="cls-2" d="M124.84,56.2l2.1.3.2-1-2.1-.3.3-1.9-1.2-.2-.3,1.9-1-.2-.2,1,1,.2-.6,3.7c-.2,1.2.3,2.3,1.7,2.5h1.5v-1.1h-1c-.7-.1-1-.5-.9-1.3l.5-3.5v-.1Z"/>
  <rect class="cls-2" x="127.21" y="60.93" width="1.5" height="1.6" transform="translate(47.38 178.74) rotate(-81.2)"/>
  <path class="cls-2" d="M181.74,34.1h-.6c-1,.1-2.3.4-3.2.7-3.5.8-6.4,1.9-10.1,1.1-.3,0-.5-.2-.8-.3-.7-.3-1.3-1-1.7-1.7-.5-1.2-.5-2.6-.3-3.9.4-2.6,2.5-4.6,3.9-6.7v-.4c0-.2-.2-.4-.6-.4,0,0-.2,0-.3.1l-.1.1-.1.1s-.2.2-.2.3c0,0,0,.1-.1.2-.1.2-.2.4-.4.6,0,0,0,.1-.1.2,0,.1-.2.3-.2.4-.1.2-.2.3-.3.4-.3.3-.6.6-.9,1-.2.2-.4.3-.6.5-1.5,1.3-3.5,2.4-5.3,2.2-4.4-.6-6.6-9.1-7.8-12.8-.4-1.4-.7-2.8-1-4.2v-.2c0-.2,0-.3-.1-.5v-.2h0c-.1-.3-.4-.4-.7-.3h-.1s-.2.2-.2.3c0,.3,0,.7.1,1v.3c0,.9.2,1.9.3,2.8v.3c0,1,.2,1.9.3,2.9.2,1.5.3,3,.4,4.5v4.1c-.1,1.1-.3,2.1-.8,3-.3.5-.6,1-1,1.4,0,0-.2.1-.2.2-.8.7-1.9,1.1-3.4,1.1s-2.5-.4-3.9-1c-.2,0-.4-.2-.7-.2s-.6-.1-.8,0v.1c-.1.2,0,.4,0,.5,0,0,.2.2.3.3.1,0,.3.1.4.2,1.3.6,2.8,1,3.9,1.8.3.2.5.3.7.6.1.1.2.2.3.3.4.5.8,1,.9,1.7.3.8.3,1.8,0,2.5-.1.4-.3.8-.6,1.1-.1.2-.2.3-.4.5,0,0-.1.1-.2.2-.2.3-.5.5-.8.7s-.6.4-.9.6c-2.4,1.5-4.9,2.8-7.6,3.5-1.7.5-3.6.6-5.3,1.1-.3.1-.6.5-.3.8,0,0,.2.1.3.1h.2c.6,0,1.2-.2,1.9-.4.2,0,.4-.1.6-.2,2.3-.4,4.9-.7,7.4-.4.7,0,1.3.2,2,.3.2,0,.4,0,.6.1.5.1.9.2,1.3.4.3.1.6.2.9.4s.6.3.9.4c.7.4,1.2.8,1.6,1.2.3.4.6.7.8,1.1.7,1.2.9,2.8,1,4.7.1,2.8,0,5.9,0,8.7,0,.4-.2,1.3,0,1.7h.5s.1,0,.2-.1l.1-.1v-1.9h0v-1.1c0-.6,0-1.1.2-1.7,0-.4.1-.7.2-1.1.1-.5.3-1.1.4-1.6.2-.5.3-1,.5-1.5s.4-1,.6-1.5c.2-.5.4-1,.7-1.5.5-.9,1.1-1.7,1.7-2.3,5.5-5.3,15.6.2,20.3,5.7.3.3.6.5.9.2h0s0-.1.1-.2v-.5c-.1-.1-.2-.2-.4-.3h0c-.5-.5-.9-1-1.4-1.5-.4-.5-.9-1-1.3-1.5-2-2.4-4.8-4.3-5.5-7.4v-.5c-.2-2,.6-3.5,1.8-4.7.6-.6,1.4-1.2,2.2-1.7.3-.2.6-.3.9-.5.8-.4,1.6-.7,2.4-1.1.5-.2,1-.4,1.5-.6h.3c.3-.1.6-.2,1-.3l.5-.2c.5-.2,1-.4,1.5-.5.5-.2.9-.3,1.3-.5.1,0,.2,0,.3-.2,0,0,.1,0,.2-.2,0-.1.1-.3.1-.4,0-.2-.2-.3-.5-.3h.4ZM166.24,48.1v.2h-.2c-3.6-1.6-10.7-2.2-12.8,1.7-.2.3-.3.6-.5.9h-.1v-.1c-.3-1.1-.8-2.2-1.5-3.1-.6-.8-1.5-1.7-2.3-2.2-1.2-.8-2.6-.7-3.9-1h-.3c2.4-1.2,4.4-3.9,4.6-6.6,0-1.4-.1-2.8-.6-4.1v-.1l.1-.1c2.7-1,4.5-3.3,5.1-6.1v-.1h0c1.7,2.6,5.4,3.6,8.2,2.5h.2v.2c-.5,3.3,1.7,7.3,4.8,8.6l1.2.3s.2,0,.2.1c-2.6,2.2-3.2,5.8-2.3,9h.1Z"/>
</svg>