<?xml version="1.0" encoding="UTF-8"?>
<svg id="Laag_1" data-name="Laag 1" xmlns="http://www.w3.org/2000/svg" viewBox="0 0 189.68 166.2">
  <defs>
    <style>
      .cls-1 {
        fill: #bbd7f2;
      }

      .cls-2 {
        fill: #fffefc;
      }

      .cls-3 {
        fill: #72202e;
      }
    </style>
  </defs>
  <path class="cls-2" d="M57.54,165.9c-5.2,0-10.7-2.4-15-6.5-5.3-5-8.6-11.4-11.2-17-1.4-2.9-2.7-5.9-3.9-8.8l-.7-1.6h-.6c-8-.5-14.6-3.7-19.1-9.2C-.16,114-2.16,99.7,2.54,89.5c5-11,16.9-14.1,20.8-15.1,2.8-.7,5.6-1.2,8-1.7h.2c3.4-.7,6.6-1.2,9.5-2.2h0c1.5-.8,3-1.4,4.5-2h.2c1.1-.5,2.1-1,2.9-1.4,2.9-1.4,5.9-3.1,8.8-5,5.3-3.5,10.5-7.7,15.3-12.4,8.3-8.2,14.4-16.8,18.3-25.4l.2-.3c0-.2.2-.4.3-.5,2.4-4.5,5.5-7.9,9.4-10.2.4-.2.9-.5,1.5-.8,2-.9,3.9-1.5,5.8-1.8,1.2-.2,2.3-.3,3.4-.3,5.5,0,10.8,2,16,5.9l1.8,1.4-.2-2.3c-.1-1.2-.2-2.3-.3-3.5h0c-.1-.8-.3-2.1-.1-3.7.6-4.7,4.6-8.2,9.3-8.2s7.2,2.3,8.8,5.7c.5,1.1.7,2,.9,2.7v.4c.2.6.4,1.3.5,1.9v.5c.3.9.5,2,.7,2.8.2.6.4,1.3.6,2.1.5,1.7,1.6,5.6,2.8,8.4l.7,1.7,1-1.5c2.3-3.3,5-5,8.3-5.1h.3c3.8,0,7.2,2.1,8.7,5.4,1.5,3.1,1,6.9-1.1,9.7-.6.8-1.2,1.5-1.7,2.1l-1.7,2,2.6-.3c.7,0,1.4-.2,2.2-.3h.6c.6-.2,1.2-.2,1.8-.3h.4c1.1-.2,3-.4,4.8-.5h.3c1,0,2,.1,3,.4,3.2.9,5.8,3.4,6.7,6.6v.2c.7,2.5.3,5.2-1.1,7.5-1.4,2.1-3.6,3.7-6.1,4.2-1.1.3-2.3.5-3.5.8-1.7.4-4.8,1-6.9,1.8l-1.3.5.9,1.1c.5.6,1.1,1.3,1.6,1.9v.2c1,1.1,2,2.2,2.9,3.4l.9,1.1c.7,1,1.4,1.9,2.1,2.7,1.3,1.3,2.2,2.8,2.6,4.4v.3c.7,2.9,0,6.1-1.9,8.4l-.2.3-.2.2c-1.8,1.8-4.1,2.8-6.6,2.8s-2.2-.2-3.3-.6c-1.4-.5-2.7-1.4-3.8-2.5l-.4-.4-.4-.5c-.7-1-1.6-1.9-2.6-2.9l-2.4-2.4.7,3.3c1.1,4.9,1.8,10,2.4,14.9,1,9.2.7,17.3-.7,23.9-3.3,14.9-12,20.1-18.7,21.9-2,.5-4,.8-5.9.8-3,0-5.9-.6-8.8-1.7-2.9-1.1-5.8-2.8-8.5-5.1h0v-.1c-8.5-4.5-18-7.2-29-8.3-4.9-.5-9.9-.7-14.9-.7s-5.3,0-8.1.2c-.7,0-1.4,0-2.1.1h-1.5c0,.1.7,1.5.7,1.5,1.4,2.6,2.6,4.8,3.8,6.8,2,3.5,4,7.3,4.9,11.5,1.5,7.3-1,13.7-6.9,17.5-2.8,1.8-6,2.8-9.4,2.8l-.1-.3Z"/>
  <path class="cls-3" d="M154.34,95.8c-.9-8.4-2.6-16.9-5.1-25.2h0c-.4-1.4-.9-3.1-1.5-4.9-1.2.4-2.3,1.2-3.2,2.3,2.2,6.7,3.8,13.6,5,20.4,1.3,7.5,2,15.1,1.2,22.7-.5,5.2-1.9,11-5.7,14.7-3.6,3.5-9.2,3.8-13.7,1.3-1.2-.7-2.4-1.6-3.5-2.5-.1-.1-.3-.3-.5-.4-2-1.7-3.8-3.7-5.4-5.8-5.1-6.6-8.9-14.3-12-22.1,8.1-1.1,16.5-4.9,17.6-13.9.6-4.6-.6-10-3.8-13.5-2.8-3.1-6.9-4.4-11-4.6-3.9-.2-7.9.6-11.5,1.9-.5-2.4-.9-4.9-1.2-7.3-1.3-9.1-2.3-20,1.9-28.7,0-.2.2-.3.3-.5h0c.3-.5.5-1,.9-1.5,1.2-1.9,2.7-3.5,4.7-4.6,4.1-1.9,8.4-.4,12.1,2.4,1.2.9,2.4,1.9,3.5,3,1.5,1.7,3.3,4,5,6.5,1.1.5,1.9.9,3.1,1h1c.5,0,1,0,1.4-.2-2-3.2-3.9-5.8-5.7-7.6h0c-1.1-1.2-2.2-2.4-3.5-3.5-4.1-3.7-9.4-6.9-15.1-6-1.3.2-2.5.6-3.7,1.2-.2,0-.3.2-.4.2-2.9,1.6-5,4.2-6.5,7.1h0c-4.8,10.5-12,19.9-20.1,28-5.1,5.1-10.7,9.7-16.7,13.6-3.1,2-6.4,3.9-9.7,5.5-2.6,1.3-5.5,2.2-8,3.6-6.1,2.3-12.8,2.8-19.1,4.4-6,1.6-12.3,4.3-15,10.3-3.3,7.3-1.7,17.9,3.3,24.1,4.5,5.6,11.8,6.6,18.5,5.8,2.4,5.2,4.5,10.5,6.9,15.6s5.2,10.4,9.3,14.4c3.6,3.4,9.1,5.7,13.7,2.7,6.5-4.2,2-12.3-.9-17.3-3.7-6.4-7-13.1-10.4-19.7,1.6-.4,3.2-.7,4.8-1h.8c3.7-.3,7.4-.7,11.2-.9,8.1-.4,16.2-.2,24.3.6,11.7,1.2,22.9,4.1,33.2,9.8,4.6,4,10.1,6.5,16.2,4.9,14.5-3.8,14.2-24.8,13-36.3ZM55.34,135.5c1.6,2.8,3.3,5.5,4.7,8.3,1.1,2.2,3,5.8,1.1,8-3.2,3.7-8.3.4-10.7-2.3-3.5-3.7-5.9-8.4-8-13-2.2-4.7-4.1-9.4-6.2-14.1,3.8-.7,7.5-1.8,11.2-2.8,2.7,5.3,5.2,10.6,8.1,15.8l-.2.1ZM100.64,114.9c-7-1.2-14.1-1.7-21.2-1.9-7.6-.1-15.1.5-22.6,1-1.4.1-2.9.3-4.2-.3-1.5-.6-2.6-2.1-3.5-3.3-2.2-2.9-4.1-6.2-5.3-9.7-1.1-3.1-1.7-6.4-1.7-9.7,0-2.8,0-6.4,2.6-8.2,2.8-1.9,6.4-2.9,9.4-4.4,3.2-1.6,6.4-3.4,9.5-5.3,5.8-3.7,11.3-8.1,16.2-12.8,5.8-5.6,11.3-11.8,15.8-18.6-.3,3.2-.2,6.5,0,9.7.4,5.9,1.3,11.8,2.5,17.7h0c1,4.6,2.1,9.1,3.4,13.6,3.3,11.3,7.5,22.5,13.7,32.5,1,1.5,2.1,3.2,3.3,4.8-5.7-2.3-11.7-4-17.9-5.1h0ZM137.14,49.5c.2.4.4.9.6,1.3,1.6,3.4,3,6.6,4.2,9.7.9-.7,2.1-1.2,3.4-1.5-1.7-4.3-3.5-8.6-5.2-11.7-.5-1-1-2-1.6-3-.1-.2-.2-.5-.4-.7-.1-.2-.2-.4-.3-.6.1,1.1.2,2.2,0,3.2-.1,1.1-.4,2.2-.9,3.3h.2Z"/>
  <path class="cls-1" d="M181.14,46.5c0-.2-.3-.4-.7-.5h-.8c-1.4,0-3.1.2-4.3.4-4.7.6-8.8,1.6-13.7,0-1.5-.5-2.7-1.6-3.3-3.1-.7-1.7-.7-3.6-.3-5.3.6-3.5,3.4-5.9,5.4-8.6.4-.5.1-1.1-.5-1.1-1,0-1.9,2.4-2.7,3.1-2.2,2.2-5.9,4.7-9.3,3.9-6-1.5-8.7-13.5-10.3-18.7-.6-1.9-.8-3.9-1.2-5.9-.1-.4-.2-.9-.4-1.4-.3-.7-1.3-.7-1.3,0,0,.6.2,1.2.2,1.8.4,5.5,1.2,11.1,1.3,16.6.3,5.6-1.1,11.1-7.7,10.4-2.1-.2-3.4-1-5.2-1.9-.6-.2-1.6-1-2.1-.4-.4.7.5,1.1,1,1.4,3.1,1.7,6.9,3.1,8,6.8.4,1.2.3,2.5,0,3.5-.7,1.8-2.3,3-3.9,3.8-3.3,1.6-6.7,3-10.4,3.7-2.4.4-4.9.2-7.2.7-.5.1-.8.6-.4,1,.2.2.5.2.8.3,1,0,2.3-.3,3.4-.4,5.7-.4,12.6.2,17.7,3.6,3.5,2.4,4.4,5.5,4.6,10.2.1,3.9-.1,8-.2,11.9,0,.8-.7,2.8.9,2.5.2,0,.3-.2.4-.3v-2.6h0v-1.5c0-2,.6-4,1.2-5.9.4-1.4,1-2.7,1.5-4,6-14.3,23.4-3.4,30.7,6.1.4.4.8.7,1.2.4.2-.2.2-.5.2-.8s-.4-.5-.6-.7c-1.3-1.5-2.4-3-3.6-4.5-2.8-3.8-6.8-6.9-7.4-11.7-.8-8.8,12.4-10.1,18.6-11.8.4,0,.9-.4.8-.9l-.4-.1ZM159.24,62.7v.3h-.2c-4.8-2.7-14.5-4.6-17.4.4-.2.4-.5.8-.7,1.2h-.1v-.2c-.4-1.5-1-3.1-2-4.4-.9-1.1-2.1-2.6-3.1-3.4-1.7-1.2-3.5-1.4-5.3-2-.1,0-.2,0-.4-.1h.1c3.3-1.2,6.1-4.6,6.4-8.3.1-1.9-.1-3.9-.8-5.8v-.2s0-.1.2-.1c3.7-1,6.2-3.8,7-7.6v-.1l.1.1c2.3,3.8,7.2,5.7,11.1,4.7h.2v.3c-.8,4.5,2.1,10.3,6.3,12.5.5.2,1.1.4,1.6.6.1,0,.3,0,.3.2-3.6,2.5-4.5,7.4-3.4,11.9h.1Z"/>
</svg>