<svg xmlns="http://www.w3.org/2000/svg" xmlns:xlink="http://www.w3.org/1999/xlink" width="264.439" height="283.002" viewBox="0 0 264.439 283.002">
  <defs>
    <clipPath id="clip-path">
      <rect id="Rectangle_43" data-name="Rectangle 43" width="264.439" height="283.002" fill="none"/>
    </clipPath>
  </defs>
  <g id="Group_20" data-name="Group 20" clip-path="url(#clip-path)">
    <path id="Path_43" data-name="Path 43" d="M262.43,81.375a13.679,13.679,0,0,1-8.569,5.942c-1.657.42-3.54.84-5.583,1.295-3.765.844-13.537,2.986-15.744,5.323.359,1.982,2.73,4.742,5.193,7.629,1.493,1.719,3.02,3.471,4.513,5.484l1.264,1.623c1.268,1.657,2.535,3.345,3.9,4.934a13.558,13.558,0,0,1,3.731,6.2l.1.485a13.415,13.415,0,0,1-2.788,11.589l-.229.29-.26.26a12.663,12.663,0,0,1-9.187,3.929,13.642,13.642,0,0,1-9.867-4.384l-.55-.55-.489-.618a52.529,52.529,0,0,0-8.535-8.634c-.649,3.345-1.428,6.621-2.241,9.741a110.636,110.636,0,0,1-15.45,33.333C191.151,180.663,175.377,188,161.485,194.49c-11.815,5.487-22.95,10.711-29.537,20.059l-.294.424c-2.433,3.536-5.842,8.473-11.326,11.62a19.831,19.831,0,0,1-1.852,7.626,18.467,18.467,0,0,1-5.873,7.53,18.579,18.579,0,0,1-3.051,8.538,17.325,17.325,0,0,1-4.349,4.934,20.639,20.639,0,0,1-2.467,7.37c-3.765,7.332-10.257,9.345-13.8,10.448-.584.195-1.394.454-1.654.584-.164.164-.745.779-1.169,1.268-2.077,2.272-5.552,6.1-11.326,7.53a19.633,19.633,0,0,1-4.773.584,27.607,27.607,0,0,1-8.7-1.623c-.489-.13-1.073-.325-1.493-.424h-.034a44.318,44.318,0,0,1-10.971,1.4C31.262,282.356,16.136,270.9,9,252.33c-.164-.126-.325-.26-.489-.39a21.529,21.529,0,0,1-7.271-9.478c-2.368-6.1-.779-12.074.195-15.156-.031-.748-.256-2.238-.42-3.277a44.892,44.892,0,0,1-.683-7.274,21.37,21.37,0,0,1,7.79-15.58A21.666,21.666,0,0,1,15.586,187.8a21.547,21.547,0,0,1,4.056-9.9,24.564,24.564,0,0,1,3.341-3.506c.454-.389.878-.748,1.332-1.069.13-7.209,3.017-13.732,4.9-17.271,3.8-9.283,2.436-21.617,1.039-34.7-1.684-15.484-3.441-31.519,2.532-46.74l.13-.325C49.958,34.471,87.189,7.725,125.586,7.725a85.278,85.278,0,0,1,28.2,4.838,149.281,149.281,0,0,1,15.874,6.717c-.065-.844-.164-1.688-.229-2.562a17.135,17.135,0,0,1-.225-5.388A12.953,12.953,0,0,1,182.029,0,13.3,13.3,0,0,1,194.2,8.019a20.873,20.873,0,0,1,1.233,3.895l.161.615c.26,1.268.523,2.566.748,3.864a48.162,48.162,0,0,0,1.069,4.934c.294.94.618,2.108,1.008,3.406,1.1,3.895,4.349,15.16,7.366,18.73a15.366,15.366,0,0,0,3.509-2.532c.1-.164.161-.294.256-.454,1.722-2.631,5.292-8.084,12.4-8.408l.489-.031a12.971,12.971,0,0,1,10.516,20.934c-1.008,1.363-2.111,2.665-3.246,3.994-1.363,1.623-3.215,3.83-3.376,4.8l-.065.454c-.065.26-.1.485-.13.68a16.87,16.87,0,0,0,3.731.39,62.417,62.417,0,0,0,7.79-.779c1.3-.195,2.566-.386,3.9-.55l.68-.065a75.1,75.1,0,0,1,7.725-.649h.389a14.739,14.739,0,0,1,4.22.55,13.428,13.428,0,0,1,9.379,9.092,12.993,12.993,0,0,1-1.524,10.482" transform="translate(0 -0.002)" fill="#fffcfa"/>
    <path id="Path_44" data-name="Path 44" d="M194.565,79.6a24.113,24.113,0,0,0,2.733.5c.946.1,2.245.673,2.692.243.345-5.361-1.616-11.477-3.007-16.752a71.792,71.792,0,0,0-6.621-15.235c-1.992-1.66-5.21-2.2-7.243-4.079-.8-.335-1.678-.492-1.25.864a78.25,78.25,0,0,1,12.447,34.2Zm.721,13.13c-2.207,16.468-6.334,33.418-15.946,47.505-11.743,17.722-31.754,23.65-48.9,33.039-8.214,4.373-14.992,9.8-19.94,17.814-6.492,11.541-17.647,8.5-28.884,2.467-1.1-.68-2.733-1.479-2.662-2.894,4.148-9.051,11.5-17.955,19.287-24.453,11.849-9.58,28.973-13.8,34.676-29.264a14.481,14.481,0,0,0-3.359-15.245c-1.712-1.865-3.492-2.761-3.728-3.731.741-5.559,1.667-13.1-2.234-18.539-5.224-8.265-17.422-12.331-26.076-7.609-4.319,1.872-6.041,4.893-8.511,5.88-1.8-.1-3.27-1.114-5.521-1.37a14.389,14.389,0,0,0-14.06,5.3c-10.175,13-4.667,29.756-6.642,44.864-1.209,9.389-4.913,19.284-9.358,27.408-.612,1.131-1.151,2.125-2.252,2.1a39.649,39.649,0,0,1-16.373-11.077c-3.577-4.558-2.094-10.8.311-15.577a42.939,42.939,0,0,0,4.712-18.095c1.032-20.032-6.2-42.155.12-61.766,20.671-51.742,80.432-77.633,127.4-39.852,1.285.635,3.447,3.813,4.114,1.4.243-2.163.051-4.571-1.626-6.157-7.985-6.492-18.429-11.374-28.454-14.931C96.227-5.888,52.388,25.5,35.472,65.069c-9.912,25.2,6.55,58.022-3.936,82.253-2.952,5.347-5.272,12.98-2.4,18.365a1.883,1.883,0,0,1,.01,1.24c-.656,1-4.64.608-6.721,2.535a12.147,12.147,0,0,0-1.688,1.742,9.122,9.122,0,0,0-1.753,6.779c.468,2.289-.8,3.321-2.648,4.076a9.175,9.175,0,0,0-4.964,8.238c.079,1.637.492,3.017-.243,3.792-.567.721-1.978,1.107-3.212,1.917a9.3,9.3,0,0,0-4.083,7.055c-.079,4.076,1.876,9.45.752,13.3-.772,2.371-1.671,5.436-.6,8.005,1.237,3.734,5.692,4.917,7.236,8.508,5.856,16.612,19.478,27.06,37.16,22.581,5.46-1.9,9.85,2.709,15.091,1.432,3.707-.912,5.525-5.057,8.7-7.12,3.854-2.706,9.184-1.886,11.545-6.758a8.242,8.242,0,0,0,1.08-5.795c-.109-.817-.328-1.93.178-2.549,1.8-1.5,4.7-2.159,5.965-4.657,2.193-2.908.9-5.648,1.623-8.6,1.965-2,5.419-2.8,6.478-5.948,1.78-3.246.53-6.8-1.21-9.669-.43-2.231,3.5-1.565,5.415-2.375,4.879-1.315,7.749-5.76,10.434-9.649,17.087-24.3,52.5-24.029,69.666-49.251a99.186,99.186,0,0,0,13.7-29.558c1.729-6.6,3.242-13.335,3.3-20.039-.044-2.19-3.3-3.376-4.8-2.439ZM89.3,107.214c.164,2.436.359,5.778.389,7.858.065,3.5-.875,8.73-3.7,8.794a1.386,1.386,0,0,1-1.329-.553c-1.363-2.142,1.3-9.413,3.311-13.468.39-.748.875-1.722,1.329-2.631M69.119,131.827c-1.353-14.422-.4-32.308,13.875-30.948,1.305.266,2.419.728,1.825,2.064-4.4,6.922-13.041,27.388,2.313,26.971,10.192-2.573,9.286-19.755,6.273-26.971-.355-1.486.229-2.638,1.315-3.844,10.708-11.623,30.808-1.066,27.265,14.353a11.511,11.511,0,0,1-.923,2.405c-1.329,2.019-3.143,1.37-5.819,2.446a29.883,29.883,0,0,0-13,8.538c-6.932,6.768-1.572,17.353,7.64,13.81,6.116-2.692,11.545-11.907,13.878-16.1.8-1.148,1.688-.615,2.723.461,6.724,8.743-.451,16.3-10.045,23.021-13.147,7.448-26.841,13.222-34.9,23.835A99.064,99.064,0,0,0,71.9,185.913a3.455,3.455,0,0,1-1.425,1.2c-2.074.195-3.905-1.78-5.853-2.655a36.042,36.042,0,0,1-4.6-2.8,1.927,1.927,0,0,1-.345-2.1c1.455-3.113,3.283-6.348,4.612-9.57,5.087-11.572,6.57-23.322,4.9-37.419Zm48.523-8.8c-.519.844-1.073,1.787-1.493,2.5-2.4,3.83-7.141,9.9-9.673,9.9h-.034c-.325,0-.779-.1-1.2-.844-1.4-2.4,2.562-5.972,5.549-7.759,1.787-1.069,4.739-2.662,6.85-3.8M44.519,251.632c-13.67,3.54-24.04-5.62-28.023-17.852-.174-.434.287.031.905.314l2.713,1.507c8.115,4.5,19.724,10.944,27.576,15.3,1.011.191-2.05.465-2.768.656Zm21.187-1.083c-1.11,2.781-5.614,3.119-7.889,1.657-2.2-1.22-44.721-24.894-46.914-26.124-1.678-.96-3.454-3.078-3.417-5.248.68-6.249,7.172-4.712,10.92-2.033,6.878,3.83,14.049,7.824,22.1,12.314,7.7,4.291,16.492,9.184,22.181,12.361,1.992,1.059,4.274,4.216,3.184,6.69ZM80.8,240.918c-1.179,2.768-5.617,3.1-7.978,1.616-3.912-2.19-46.443-25.868-60.926-33.944a7.952,7.952,0,0,1-3.256-2.849c-3.044-5.145,2.86-8.955,7.336-6.331,10.124,5.62,20.609,11.48,32.212,17.941,10.055,5.6,21.8,12.146,29.363,16.359,2.023,1.056,4.445,4.24,3.42,6.8Zm7.486-13.472c-1.223,2.74-5.549,3.1-7.94,1.606-3.126-1.736-57.359-31.959-61.428-34.228-5.48-2.863-4.448-10.575,2.245-9.638a10,10,0,0,1,3.56,1.418c15.31,8.528,36.541,20.36,51.735,28.826,6.714,4.3,13.113,5.1,12,11.613Zm7.206-13.1c-1.148,2.156-4.6,2.969-6.768,1.749-3.133-1.743-59.108-32.967-63.195-35.243-4.937-2.771-2.5-10.54,3.273-9.286,17.2,8.589,39.377,21.935,56.218,31,7.226,4.63,12.471,4.551,10.7,11.333Z" transform="translate(8.46 13.915)" fill="#5d1522"/>
    <path id="Path_45" data-name="Path 45" d="M155.413,65.744a1.44,1.44,0,0,0-1.083-.888,4.068,4.068,0,0,0-1.257-.116c-2.286.031-5.05.393-7.1.639-7.766.957-14.435,2.662-22.557-.147a8.982,8.982,0,0,1-5.388-5.067,15.253,15.253,0,0,1-.55-8.757c.922-5.8,5.641-9.666,8.88-14.148.687-.82.2-1.736-.875-1.725-1.589.075-3.184,3.878-4.459,5.043-3.6,3.666-9.737,7.746-15.228,6.444C95.99,44.472,91.511,24.833,88.9,16.257c-.943-3.188-1.346-6.447-2.05-9.621a11.819,11.819,0,0,0-.632-2.224c-.5-1.2-2.057-1.2-2.2-.041a20.2,20.2,0,0,0,.29,3c.6,9.088,1.91,18.224,2.156,27.333.489,9.126-1.821,18.265-12.614,17.039-3.376-.311-5.521-1.568-8.62-3.126-.929-.4-2.658-1.606-3.4-.625-.721,1.11.772,1.842,1.63,2.31,5.043,2.819,11.4,5.05,13.106,11.254a9.357,9.357,0,0,1-.024,5.7c-1.069,2.972-3.762,4.858-6.444,6.273a63.232,63.232,0,0,1-17.121,6c-3.881.673-8.005.376-11.869,1.114a1.027,1.027,0,0,0-.673,1.684,2.009,2.009,0,0,0,1.244.427,37.82,37.82,0,0,0,5.508-.622c9.324-.676,20.691.335,29.117,5.87,5.743,3.888,7.274,9.047,7.52,16.731.195,6.4-.2,13.164-.369,19.571.027,1.329-1.083,4.534,1.4,4.117a1.067,1.067,0,0,0,.663-.509,2.675,2.675,0,0,0,.079-.806c.027-1.162-.027-2.467-.044-3.4l-.007-.014c-.024-.851-.133-1.664-.13-2.521a37.5,37.5,0,0,1,2.023-9.628c.735-2.228,1.582-4.387,2.477-6.536,9.915-23.486,38.424-5.644,50.416,10.079.656.663,1.373,1.172,1.924.6a1.569,1.569,0,0,0,.26-1.268c-.13-.5-.666-.752-.974-1.162-2.057-2.419-3.956-4.961-5.907-7.472-4.541-6.2-11.207-11.371-12.092-19.273-1.274-14.538,20.374-16.581,30.528-19.318.694-.113,1.558-.67,1.343-1.449m-36,26.5c.031.195.024.424-.1.492s-.222.031-.362-.044c-7.875-4.51-23.759-7.578-28.594.663-.393.639-.772,1.312-1.216,1.906-.061.065-.123.161-.215.15-.065-.021-.1-.116-.133-.253a20.151,20.151,0,0,0-3.215-7.288A32.14,32.14,0,0,0,80.5,82.356c-2.73-2.053-5.716-2.316-8.719-3.259a4.366,4.366,0,0,1-.584-.239c-.062-.044-.085-.082-.075-.126v-.007a.508.508,0,0,1,.239-.154A16.934,16.934,0,0,0,81.91,64.986a23.231,23.231,0,0,0-1.254-9.45.62.62,0,0,1-.041-.338c.021-.113.133-.178.284-.225A15.8,15.8,0,0,0,92.4,42.528c.031-.126.065-.222.116-.225.048-.021.123.072.2.2,3.765,6.28,11.822,9.413,18.255,7.722a.419.419,0,0,1,.383.133.653.653,0,0,1,.106.492c-1.24,7.394,3.42,16.916,10.38,20.572.844.4,1.746.581,2.61.916.2.092.448.15.5.29-5.965,4.168-7.411,12.2-5.535,19.622" transform="translate(97.051 8.467)" fill="#a9ceef"/>
  </g>
</svg>
