<?xml version="1.0" encoding="UTF-8"?>
<svg id="Laag_1" data-name="Laag 1" xmlns="http://www.w3.org/2000/svg" viewBox="0 0 185.74 156.6">
  <defs>
    <style>
      .cls-1 {
        fill: #bbd7f2;
      }

      .cls-2 {
        fill: #fffefc;
      }

      .cls-3 {
        fill: #72202e;
      }
    </style>
  </defs>
  <path class="cls-2" d="M179.3,42.2c-.9-.3-1.9-.4-3-.4h-.2c-.9,0-1.8,0-2.9.2h-.9l-.6-.5c-.5-.5-1.1-.9-1.7-1.3h-.2c-1-.7-2.1-1.2-3.3-1.6l-2.4-.7,1.2-2.2c1.5-2.7,1.7-5.8.4-8.5-1.5-3.2-4.9-5.3-8.6-5.3h-.3c-5,.2-7.7,4.3-8.7,5.8l-1.9,2.9-1.5-3.2c-1.5-3.2-3-8.2-3.6-10.3l-.7-2.3c-.3-1-.5-2.2-.7-3.3,0-.4-.2-.9-.3-1.3,0-.5-.2-.9-.3-1.4v-.3l-.1-.1c0-.4-.3-1.5-.9-2.7-1.5-3.5-4.9-5.7-8.7-5.7s-8.6,3.5-9.1,8c-.2,1.6,0,3,.1,3.7h0v.2c.1,2.1.3,4.2.5,6.2v1.4c.5,3.5.8,6.8.9,10.1v3.3c.1,0-2.9-1.4-2.9-1.4-1.1-.5-2.8-1.2-4.9-1.2s-5.6,1.3-7.4,3.7l-.2.2-.2.2c-.4.7-.8,1.4-1.1,2.3l-.4,1.4h-33.1l-.4-1.5c-1.1-4.4-5.1-7.5-9.7-7.5h-9.8c-3.1,0-5.9,1.4-7.9,3.8l-.6.8h-17.3c-3,0-5.9,1.4-7.8,3.7l-.6.7h-3.2c-7.9,0-14.3,6.4-14.3,14.3v88.8c0,8.5,6.9,15.4,15.4,15.4h145.4c8.5,0,15.4-6.9,15.4-15.4V61.2l1.4-.4c.1,0,.3,0,.4-.1h.3c2.5-.6,4.7-2.1,6-4.2,1.4-2.2,1.8-4.9,1.1-7.5-.9-3.1-3.5-5.6-6.7-6.5l.6-.3Z"/>
  <path class="cls-3" d="M145.9,42.3h-1.1c-.9,0-1.9-.1-2.8-.3h-3.5c-.8,0-1.5.7-1.5,1.5v3h-8.2c.2.9.2,1.8.2,2.8h18.5c-1.1-2.2-1.7-4.7-1.6-7h0ZM165.1,56.7v20.3c.1.2.3.3.4.5l.9,1.2c.5.7,1,1.3,1.6,2v-24.9c-1,.3-2,.6-2.8.9h-.1ZM166.3,86h0v-.1c-.3-.4-.7-.9-1.1-1.3v48.3H11.9v-52.5h50.1c-.1.2-.2.3-.3.5-.2.3-.4.7-.6,1.1-.5.9-1,1.8-1.4,2.8,0,.2-.2.4-.2.6s-.1.4-.2.6c0,.2-.1.4-.2.6l-.2.6c-.1.4-.3.8-.4,1.2,0,.2-.1.4-.2.6v.7c0,.3-.1.5-.2.8v.2c0,.2-.1.5-.1.7v.4c0,.3,0,.5-.1.8v4.8c0,17.2,14,31.2,31.2,31.2s31.2-14,31.2-31.2,0-1.7-.1-2.6v-1c0-.2,0-.4-.1-.6v-.4h0c0-.4,0-.7-.1-1v-.3c0-.2,0-.5-.1-.8h0c0-.4-.1-.6-.2-.9,0-.1,0-.3-.1-.4v-.3c0-.2-.1-.4-.2-.6-.1-.4-.2-.8-.4-1.2l-.2-.6c0-.2-.1-.4-.2-.6,0-.2-.1-.4-.2-.6,0-.2-.1-.4-.2-.6-.3-.7-.7-1.5-1.1-2.3,0-.2-.2-.3-.3-.5l-.3-.5c-.1-.3-.3-.6-.5-.8,0,0-.1-.1-.1-.2h12.4v-2.2h-13.9c-6-7.9-15-12.3-24.9-12.3s-18.9,4.5-24.9,12.3H11.9v-25.1c0-2.1,1.7-3.8,3.9-3.8h106.6c0-.2,0-.4-.1-.6-.2-.8-.6-1.5-1.1-2.1h-55.7v-2.1c0-.8-.7-1.5-1.5-1.5h-.6v-3.9c0-.8-.7-1.5-1.5-1.5h-9.8c-.8,0-1.5.7-1.5,1.5v3.9h-.6c-.8,0-1.5.7-1.5,1.5v2.1h-2.7v-3c0-.8-.7-1.5-1.5-1.5h-17.9c-.8,0-1.5.7-1.5,1.5v3h-10.1c-3.2,0-5.7,2.6-5.7,5.7v88.8c0,3.8,3.1,6.8,6.8,6.8h145.4c3.8,0,6.8-3.1,6.8-6.8v-54c-.7-.1-1.3-.6-1.6-1l-.2-.3ZM66.5,80.2c.4-.5.8-.9,1.2-1.4,5.2-5.9,12.8-9.3,20.7-9.3s15.4,3.4,20.7,9.3c.4.4.8.9,1.1,1.4,3.8,4.9,5.8,10.7,5.8,16.8,0,15.2-12.4,27.6-27.6,27.6s-27.6-12.4-27.6-27.6,2-12,5.7-16.8ZM165.1,140.1c0,2.7-2.2,5-5,5H16.9c-2.7,0-5-2.2-5-5v-4.8h153.2v4.8ZM158.5,78.2h-24c0,.1-.1.3-.2.4-.3.6-.5,1.2-.7,1.8h27.4c-.8-.7-1.7-1.5-2.6-2.2h.1ZM162.2,46.5h-4.3v-3c0-.8-.7-1.5-1.5-1.5h-3.2c-.2,1.4-.3,3.1.4,4.6.5,1.2,1.5,2.2,2.8,2.6h4.9c.9,0,1.8.3,2.4.9,1.2,0,2.4-.2,3.7-.4-.9-1.9-2.9-3.3-5.1-3.3l-.1.1Z"/>
  <path class="cls-3" d="M126.7,73.7h-3.8c-1.5,0-2.8-1.3-2.8-2.8v-4.6c.9.4,1.8.9,2.6,1.4,2.2,1.5,3.4,3.2,4,6Z"/>
  <path class="cls-3" d="M151,66.9c-3.1-1.3-6.8-2.1-9.9-2.1s-6.7,1.1-8.5,3.1c-.4-1-.9-1.9-1.5-2.7-.8-1-2.3-2.9-3.8-4.1-1.1-.9-2.3-1.3-3.4-1.7,1.9-1.5,3.4-3.5,4.2-5.7h22.5c1,1,2.1,1.9,3.2,2.5-2.3,2.7-3.4,6.5-2.9,10.6l.1.1Z"/>
  <path class="cls-3" d="M151.1,73.7h-13.3c1.6-1.2,3.5-1.9,5.7-1.9s5,.7,7.6,1.9Z"/>
  <path class="cls-3" d="M160.4,59.1v12.3c-1.5-1.9-2.6-3.9-2.9-6.2-.2-2.6.9-4.6,2.9-6.1Z"/>
  <path class="cls-3" d="M72,60.9c0,2.7-2.2,4.8-4.8,4.8s-4.8-2.2-4.8-4.8,2.2-4.8,4.8-4.8,4.8,2.2,4.8,4.8Z"/>
  <path class="cls-3" d="M107.2,97c0,10.4-8.4,18.8-18.8,18.8s-18.8-8.4-18.8-18.8,4.5-14.1,10.9-17.1c1.4-.6,2.9-1.1,4.4-1.4,1.1-.2,2.3-.3,3.5-.3s2.4.1,3.5.3c1.5.3,3,.8,4.4,1.4,6.4,3,10.9,9.5,10.9,17.1Z"/>
  <path class="cls-1" d="M177.7,51c0-.3-.3-.5-.7-.6h-.9c-1.6,0-3.5.3-4.9.4-5.3.7-9.9,1.8-15.5-.1-1.7-.6-3-1.8-3.7-3.5-.8-1.9-.8-4.1-.4-6,.6-4,3.9-6.6,6.1-9.7.5-.6.1-1.2-.6-1.2-1.1,0-2.2,2.7-3.1,3.5-2.5,2.5-6.7,5.3-10.4,4.4-6.7-1.7-9.8-15.2-11.6-21.1-.6-2.2-.9-4.4-1.4-6.6-.1-.5-.2-1-.4-1.5-.3-.8-1.4-.8-1.5,0,0,.7.2,1.4.2,2.1.4,6.2,1.3,12.5,1.5,18.7.3,6.3-1.2,12.5-8.6,11.7-2.3-.2-3.8-1.1-5.9-2.1-.6-.3-1.8-1.1-2.3-.4-.5.8.5,1.3,1.1,1.6,3.5,1.9,7.8,3.5,9,7.7.4,1.3.4,2.8,0,3.9-.7,2-2.6,3.3-4.4,4.3-3.7,1.8-7.6,3.4-11.7,4.1-2.7.5-5.5.3-8.1.8-.5.1-.9.7-.5,1.2.2.2.6.3.9.3,1.1,0,2.6-.3,3.8-.4,6.4-.5,14.2.2,19.9,4,3.9,2.7,5,6.2,5.2,11.5.1,4.4-.1,9-.3,13.4,0,.9-.7,3.1,1,2.8.2,0,.4-.2.5-.3v-2.9h0v-1.7c.1-2.3.7-4.5,1.4-6.6.5-1.5,1.1-3,1.7-4.5,6.8-16.1,26.3-3.9,34.5,6.9.4.5.9.8,1.3.4.2-.2.2-.6.2-.9s-.5-.5-.7-.8c-1.4-1.7-2.7-3.4-4-5.1-3.1-4.3-7.7-7.8-8.3-13.2-.9-10,14-11.4,20.9-13.2.5,0,1.1-.5.9-1l-.2-.3ZM153.1,69.2v.3h-.2c-5.4-3.1-16.3-5.2-19.6.5-.3.4-.5.9-.8,1.3,0,0,0,.1-.1.1v-.2c-.4-1.7-1.1-3.5-2.2-5-1-1.3-2.3-2.9-3.5-3.8-1.9-1.4-3.9-1.6-6-2.2-.1,0-.3,0-.4-.2h0l.2-.1c3.7-1.4,6.8-5.2,7.2-9.3.2-2.1-.1-4.4-.9-6.5v-.2s0-.1.2-.2c4.1-1.1,7-4.3,7.9-8.5v-.2l.1.1c2.6,4.3,8.1,6.5,12.5,5.3h.3v.3c-.9,5.1,2.3,11.6,7.1,14.1.6.3,1.2.4,1.8.6.1,0,.3.1.3.2-4.1,2.9-5.1,8.4-3.8,13.4l-.1.2Z"/>
</svg>