<?xml version="1.0" encoding="UTF-8"?>
<svg id="Laag_1" data-name="Laag 1" xmlns="http://www.w3.org/2000/svg" viewBox="0 0 190 156">
  <defs>
    <style>
      .cls-1 {
        fill: #bbd7f2;
      }

      .cls-2 {
        fill: #fffefc;
      }

      .cls-3 {
        fill: #72202e;
      }
    </style>
  </defs>
  <path class="cls-2" d="M189.3,41.6h.7v89.8c0,9.3-7.6,16.9-16.9,16.9H51.7c-1.1,0-2.3-.1-3.4-.3,0,.5-.2,1.1-.5,1.7v.4c-.1,0-.3.4-.3.4-1.1,2.3-3,4-5.5,4.9l-.7.3h-.8c-.6.2-1.2.3-1.7.3-2.8,0-5.4-1.2-7.3-3.2-2-2.3-2.4-4.9-2.4-6.8s0-1.6.1-2c0-1.2,0-2.4.1-3.6.1-3,.2-6.1.1-9-.1-3.5-.5-3.8-1.2-4.2-2.5-1.6-6.5-2.6-11.2-2.6s-1.7,0-2.6,0c-.2,0-.4,0-.7.1-1,.2-2.2.4-3.6.4s-.5,0-.8,0c-2.3-.1-4.6-1-6.3-2.6l-.3-.3c-2.4-2.5-3.3-6-2.3-9.3,1-3.4,3.8-5.9,7.2-6.7h.3c1.9-.4,3.7-.5,5.3-.6,1.1,0,2.1-.1,2.8-.2,2.2-.4,4.5-1.2,6.5-2,0,0-.1,0-.2-.1-.7-.3-1.4-.7-2-1.1-1.1-.6-4.4-2.4-5.5-6.6-.7-2.6-.2-5.3,1.3-7.6l.2-.3.2-.3c1.8-2.4,4.6-3.8,7.6-3.8s4.3.9,5.3,1.4h.1l.1.1s1.5.8,1.7.9v-1.9c0-3.4-.4-6.8-.8-10.4-.2-2.4-.5-5-.6-7.5-.2-.9-.4-2.2-.2-3.9.4-3.1,2.4-5.8,5-7.2v-2.5l-2.2-14.5c-1-6.4,1.6-12.7,6.6-16.1,1-.7,3.7-2.5,7.4-3.1s12.7-2,17.1-2.7l19-3,14.3-2.2,10.1-1.6L166.5.2c.9-.1,1.7-.2,2.6-.2,8.4,0,15.4,6,16.7,14.3l4.2,27.3h-.8.1Z"/>
  <path class="cls-3" d="M75.2,139.3h0v-.2c-.6-.8-1.2-1.5-1.9-2.3h-21.5c-3,0-5.4-2.4-5.4-5.4v-3.1c-.8,1-1.5,2.1-2.1,3.6-.1.3-.3.6-.4.9.6,3.8,4,6.6,7.9,6.6h23.8l-.2-.2-.2.1h0ZM46.3,93.7c-.5-.3-1-.7-1.4-1.2-.4.8-.8,1.5-1.3,2.1v25.3c.8-.5,1.7-1,2.7-1.3v-25,.1ZM74.1,50.5l18.9-2.9,16.9-2.6h0l2-.3h.8c0-.1,21.7-3.5,21.7-3.5l18.9-2.9,21.4-3.3,5.3-.8-2.8-18.5c-.7-4.4-4.8-7.4-9.2-6.7l-15.5,2.4-27.8,4.3-16.2,2.5h0l-24.5,3.8h0l-16.7,2.6h0s-14.5,2.2-19.4,3c-1.8.3-3.3,1.3-3.9,1.7-2.3,1.6-3.3,4.6-2.9,7.5l2.3,15.2v19.4c.2.6.4,1.2.5,1.9.5,1.9,1.2,4.3,2.1,6.7v-7.9h132.1v59.4c0,3-2.4,5.4-5.4,5.4h-93.5s0,.2.1.3c.2.9,0,1.8-.5,2.4h93.8c4.4,0,8-3.6,8-8V50.7h-107s.5-.2.5-.2ZM151.6,14.1l3.3,3,17,15.5-21.1,3.3-5.5-5.1-14.8-13.5,21.1-3.3v.1ZM111,20.4l20.3,18.5-21.1,3.3-20.3-18.5s21.1-3.3,21.1-3.3ZM69.9,26.8l20.3,18.5-20.9,3.3-14.2-13-6.1-5.5s20.9-3.3,20.9-3.3ZM50.3,52.8v-.7l.3-1.3c.5-1.3,1.8-2.2,3.3-2.2s2.8.9,3.3,2.3l.3,1.3c0,2-1.6,3.6-3.6,3.6s-3.2-1.2-3.5-2.9c0,0-.1-.1-.1-.1ZM82.4,61.3l-6.5,8.1h-21.1l6.5-8.1,6.5-8.1h21.1s-6.5,8.1-6.5,8.1ZM124,61.3l-6.5,8.1h-21.3l12.9-16.2h21.3l-6.5,8.1s.1,0,.1,0ZM165.1,61.3l-6.5,8.1h-21.3l12.9-16.2h21.3l-6.5,8.1s.1,0,.1,0Z"/>
  <path class="cls-3" d="M65.1,83.1c-.9.5-1.5,1.5-2.1,2.4,0,0-.1.2-.2.3h-3.9c-.7,0-1.3-.6-1.3-1.3s.6-1.3,1.3-1.3h6.2v-.1Z"/>
  <path class="cls-3" d="M164.1,84.4c0,.7-.6,1.3-1.3,1.3h-93.9c.2-.5.1-1.1-.1-1.7-.2-.4-.5-.8-.9-1h94.9c.7,0,1.3.6,1.3,1.3,0,0,0,.1,0,.1Z"/>
  <path class="cls-3" d="M57.6,126.1v.4c0,.7.6,1.3,1.3,1.3h2.9c-1.4-.7-2.8-1.3-4.1-1.7,0,0-.1,0-.1,0ZM162.8,125.2h-17.9v-22.7h17.9c.7,0,1.3-.6,1.3-1.3s-.6-1.3-1.3-1.3H62.9c0,.2.1.3.2.5.4.9,1.1,1.7,2,2.1h11.9v.7h.6c.7,0,1.3-.2,2-.3v-.3h62.7v22.7h-62.7v-16.2c-.9.2-1.8.5-2.7.7v15.5h-6.7c.6.7,1.2,1.4,1.8,2.1.2.2.3.4.5.5h90.4c.7,0,1.3-.6,1.3-1.3s-.6-1.3-1.3-1.3l-.1-.1h0Z"/>
  <path class="cls-1" d="M86.6,104.8c0-.3-.3-.5-.7-.6h-.8c-1.5,0-3.4.3-4.8.4-5.2.6-9.7,1.8-15.2-.1-1.6-.6-3-1.8-3.6-3.4-.8-1.9-.7-4-.4-5.9.6-3.9,3.8-6.5,6-9.5.5-.6.1-1.2-.6-1.2-1.1,0-2.1,2.6-3,3.4-2.4,2.5-6.6,5.2-10.3,4.3-6.6-1.7-9.6-15-11.4-20.7-.6-2.1-.9-4.3-1.4-6.5-.1-.5-.2-1-.4-1.5-.3-.8-1.4-.8-1.5,0,0,.6.2,1.4.2,2,.4,6.1,1.3,12.3,1.5,18.4.3,6.1-1.2,12.3-8.5,11.5-2.3-.2-3.7-1.1-5.8-2.1-.6-.3-1.8-1.1-2.3-.4s.5,1.2,1.1,1.6c3.4,1.9,7.7,3.4,8.8,7.6.4,1.3.4,2.8,0,3.8-.7,2-2.5,3.3-4.3,4.2-3.6,1.8-7.5,3.4-11.5,4-2.6.5-5.4.3-8,.7-.5.1-.9.7-.5,1.1.2.2.5.3.8.3,1.1,0,2.5-.3,3.7-.4,6.3-.5,13.9.2,19.6,4,3.9,2.6,4.9,6.1,5.1,11.3.1,4.3-.1,8.9-.2,13.2,0,.9-.7,3.1.9,2.8.2,0,.4-.2.4-.3v-2.8h0v-1.7c.1-2.2.7-4.4,1.4-6.5.5-1.5,1.1-3,1.7-4.4,6.7-15.8,25.9-3.8,34,6.8.4.4.9.8,1.3.4.2-.2.2-.6.2-.9s-.4-.5-.7-.8c-1.4-1.6-2.7-3.3-4-5-3.1-4.2-7.6-7.7-8.1-13-.9-9.8,13.7-11.2,20.6-13,.5,0,1-.5.9-1l-.2-.1h0ZM62.4,122.6v.3h-.2c-5.3-3-16-5.1-19.3.4-.3.4-.5.9-.8,1.3,0,0,0,.1-.1.1v-.2c-.4-1.7-1.1-3.5-2.2-4.9-1-1.3-2.3-2.8-3.4-3.7-1.8-1.4-3.9-1.6-5.9-2.2-.1,0-.3,0-.4-.2h0l.2-.1c3.7-1.4,6.7-5.1,7.1-9.2.2-2.1-.1-4.3-.8-6.4v-.2s0-.1.2-.2c4.1-1.1,6.9-4.2,7.8-8.4v-.2l.1.1c2.5,4.2,8,6.3,12.3,5.2h.3v.3c-.8,5,2.3,11.4,7,13.9.6.3,1.2.4,1.8.6.1,0,.3.1.3.2-4,2.8-5,8.2-3.7,13.2l-.3.3h0Z"/>
</svg>