<?xml version="1.0" encoding="UTF-8"?>
<svg id="Laag_1" data-name="Laag 1" xmlns="http://www.w3.org/2000/svg" viewBox="0 0 190.09 147.3">
  <defs>
    <style>
      .cls-1 {
        fill: #bbd7f2;
      }

      .cls-2 {
        fill: #fffefc;
      }

      .cls-3 {
        fill: #72202e;
      }
    </style>
  </defs>
  <path class="cls-2" d="M187.42,77.7c-4.1,9.8-12.7,17-24.2,20-3.9,1.1-8.1,1.6-12.4,1.6-7.1,0-14.3-1.5-21.2-4.3-1.7-.7-3.4-1.5-4.9-2.3l-20.3.7c.9,15.9.4,25.1-1.4,30.9-4.7,14.4-15.4,22.6-30.1,23h-2.1c-22.6,0-40.9-10.3-54.2-30.6C8.32,104.1,2.12,90.6.42,81.4c-1.2-6.5.2-13.1,3.9-18.5,4.3-6.3,12.9-18.1,22.2-25.8,14.1-11.5,28-17.9,33.4-20.1,2.6-1.1,5.2-1.6,7.7-1.6s5.3.8,7,1.4c2.3-1.8,6.2-4.2,12.6-4.2s3.1.1,4.7.4c7.5,1.2,13.9,5.7,17.7,12.5.6,1.1,1.2,2.3,1.6,3.5,4-3.2,8.9-5.7,14.4-7.2,2.2-.6,4.4-1,6.7-1.3l.5-.7-.3-3c-.2-2-.4-4-.5-6.1-.1-.8-.3-2-.1-3.4.5-4.1,4.1-7.3,8.3-7.3s6.5,2,7.9,5.2c.5,1,.7,2,.8,2.4v.3c.2.8.4,1.5.5,2.3.2,1,.4,2,.6,2.8.2.6.4,1.3.6,2,.4,1.4,1.3,4.6,2.3,7.2,1.2.3,2.3.7,3.4,1.1,1.2-1.7,3.5-4.3,7.4-4.5h.3c3.4,0,6.4,1.9,7.8,4.8.9,2,1,4.1.4,6.1l-.7,1.7,2,1.6c1.2,1,2.4,2.1,3.5,3.2,1-.1,2.2-.2,3.3-.2h.2c.9,0,1.8.1,2.7.3,3,.8,5.2,3,6.1,5.9.6,2.2.3,4.6-.8,6.5h0s0,.2-.1.3c-.4.6-.9,1.2-1.4,1.7,3.9,9.1,4.1,18.5.5,27h-.1Z"/>
  <path class="cls-3" d="M149.72,29.4c.9,1.3,2,2.2,3.2,2.5h.9c.7,0,1.5-.2,2.2-.5-2.1-.9-4.2-1.6-6.3-2.1v.1ZM161.62,34.3c-.3.6-.6,1.3-.7,2,0,.4-.1.8-.2,1.2,2.9,1.7,5.6,3.8,8,6.1,1.3,0,2.7-.2,4.1-.4-3.1-3.4-6.9-6.4-11.2-8.9h0ZM177.92,50.3c-.4-.8-.9-1.6-1.4-2.3-1.1.3-2.2.5-3.3.8.7,1,1.3,2,1.9,3,4.1,7.3,4.9,15,2.1,21.6-2.8,6.6-8.8,11.5-16.9,13.7-8.2,2.2-17.7,1.4-26.5-2.3-2.1-.9-4.1-1.9-6-3.1-.2-.1-.5-.2-.8-.2h0l-30,1.1,20.8-5.8c.3,0,.5-.2.7-.5h0c.6-.6.6-1.6,0-2.2-8-8.7-10.7-19.5-7-28.3,2.4-5.7,7.1-10.1,13.5-12.6,0,0,0-.2.1-.2.5-.6,1.1-.9,1.8-.9s.7,0,1,.2c.2,0,.3,0,.5-.1,3.4-.9,7-1.3,10.7-1.2.2-.9.4-2,.4-3.1-4.1-.2-8.1.3-11.9,1.3-9.1,2.4-15.8,8-19,15.5-3.9,9.3-1.6,20.5,5.9,29.8l-18.9,5.2c-.2-3.2-.4-5.7-.4-6.9,0-5.6,3-13.1,7.9-24.9,2.7-6.5,2.6-13.3-.5-18.8-2.6-4.6-7-7.8-12.1-8.6-7.2-1.1-10.1,1.3-12.2,3-1.1.9-1.7,1.4-2.6,1.4-1.1,0-2.1-.3-3.3-.8-2.3-.9-5.1-2.1-9.8-.2-5,2.1-18.1,8-31.4,18.9-8.6,7.1-16.7,18.2-20.7,24.1-2.5,3.8-3.5,8.3-2.7,12.7,1.5,8.1,7.4,20.9,15,32.5,11.8,18,27.9,27.1,47.7,27.1s1.3,0,1.9,0c11.5-.3,19.2-6.2,22.9-17.6,2.3-7.2,1.4-23.8.6-36l30.5-1.1c1.9,1.1,3.9,2.1,6,3,6,2.5,12.2,3.8,18.2,3.8s7-.4,10.3-1.3c9.1-2.4,15.8-8,19-15.5,3.2-7.6,2.4-16.3-2.2-24.4l.2.2ZM77.72,113.2c-9.1,4-23.8,5.4-37.5-2.9-12-7.3-18.7-15-22.3-21.3.6-.2,1.2-.4,1.9-.5,12.1-.4,32.2,1.9,38.7,10.1.3.4.8.6,1.2.6s.7-.1,1-.4c.7-.5.8-1.5.2-2.2-5.2-6.5-17-9.5-27.5-10.7,12.2-1.5,28-1.5,39.6,4.2,7.1,3.5,11.9,8.8,14.1,15.8-1.7,2.7-5.1,5.4-9.5,7.3h.1ZM91.92,57.1c-.3.9-.5,1.9-.8,2.7-.9,3.5-1.1,11.2-1.3,20.1v1.5l-6.6,1.8c-.8.2-1.3,1-1.1,1.8.1.8.8,1.3,1.6,1.3l6-.2c-.2,5.6-.4,11-.9,14.9-2.8-5.9-7.6-10.6-14.1-13.8-19.6-9.6-49-4.1-58.2-1.1-2.7-5.7-3-9.7-3-10.1v-1.1c10.2-7.9,23-13.7,39-17.6,17.7-4.4,35.3-3.8,39.8-1.7-.1.5-.3,1-.4,1.5h0ZM93.12,52.5c-6.8-2.5-24.5-2.4-41.3,1.7-13.1,3.2-24.1,7.7-33.4,13.5,4.4-3.7,11.1-7.2,17.8-10.6,2.3-1.2,4.6-2.4,6.9-3.6,13.8-7.4,37.8-12.3,46.4-10.6,1.7.3,2.8,1,3.5,2.1,1.1,1.8.8,4.6.1,7.6v-.1Z"/>
  <path class="cls-1" d="M181.82,44.5c0-.2-.3-.4-.6-.5h-.7c-1.3,0-3,.2-4.2.4-4.6.6-8.5,1.6-13.3,0-1.4-.5-2.6-1.6-3.2-3-.7-1.6-.7-3.5-.3-5.2.5-3.4,3.3-5.7,5.2-8.3.4-.5.1-1-.5-1-.9,0-1.9,2.3-2.6,3-2.1,2.2-5.7,4.6-9,3.8-5.8-1.5-8.4-13.1-10-18.1-.6-1.9-.8-3.8-1.2-5.7-.1-.4-.2-.9-.4-1.3-.3-.7-1.2-.7-1.3,0,0,.6.2,1.2.2,1.8.4,5.4,1.1,10.8,1.3,16.1.3,5.4-1.1,10.8-7.4,10.1-2-.2-3.3-.9-5.1-1.8-.5-.2-1.6-.9-2-.4-.4.7.5,1.1,1,1.4,3,1.7,6.7,3,7.7,6.6.3,1.2.3,2.4,0,3.4-.6,1.8-2.2,2.9-3.8,3.7-3.2,1.6-6.5,2.9-10.1,3.5-2.3.4-4.7.2-7,.7-.4,0-.8.6-.4,1,.2.2.5.2.7.3,1,0,2.2-.3,3.2-.4,5.5-.4,12.2.2,17.2,3.5,3.4,2.3,4.3,5.3,4.4,9.9.1,3.8-.1,7.8-.2,11.5,0,.8-.6,2.7.8,2.4.2,0,.3-.1.4-.3v-2.5h0v-1.5c0-2,.6-3.8,1.2-5.7.4-1.3.9-2.6,1.5-3.9,5.9-13.9,22.7-3.3,29.7,5.9.4.4.8.7,1.1.4.2-.2.2-.5.2-.7,0-.3-.4-.4-.6-.7-1.2-1.4-2.3-2.9-3.5-4.4-2.7-3.7-6.6-6.7-7.1-11.4-.8-8.6,12-9.8,18-11.4.4,0,.9-.4.8-.9l-.1-.3ZM160.52,60.1v.3h-.2c-4.6-2.7-14-4.5-16.9.4-.2.4-.5.8-.7,1.1h-.1v-.1c-.3-1.5-1-3-1.9-4.3-.8-1.1-2-2.5-3-3.3-1.6-1.2-3.4-1.4-5.1-1.9-.1,0-.2,0-.3-.1h.1c3.2-1.2,5.9-4.5,6.2-8,.1-1.8,0-3.8-.7-5.6v-.2s0-.1.2-.1c3.6-1,6-3.7,6.8-7.3v-.1l.1.1c2.2,3.7,7,5.6,10.8,4.6h.2v.3c-.7,4.4,2,10,6.1,12.1.5.2,1,.3,1.5.5.1,0,.3,0,.3.2-3.5,2.5-4.4,7.2-3.3,11.6l-.1-.2Z"/>
</svg>