<svg xmlns="http://www.w3.org/2000/svg" xmlns:xlink="http://www.w3.org/1999/xlink" width="327.425" height="253.844" viewBox="0 0 327.425 253.844">
  <defs>
    <clipPath id="clip-path">
      <rect id="Rectangle_45" data-name="Rectangle 45" width="327.425" height="253.844" transform="translate(0 0)" fill="none"/>
    </clipPath>
  </defs>
  <g id="Group_22" data-name="Group 22" transform="translate(0 0)" clip-path="url(#clip-path)">
    <path id="Path_50" data-name="Path 50" d="M323.068,134.036c-7.114,16.957-21.894,29.216-41.618,34.529a81.819,81.819,0,0,1-21.323,2.75,94.409,94.409,0,0,1-36.521-7.493c-2.966-1.257-5.808-2.61-8.487-4.032l-34.956,1.233c1.517,27.439.735,43.3-2.491,53.191-8.063,24.808-26.513,38.871-51.913,39.582-1.114.048-2.4.048-3.676.048-39.011,0-70.458-17.715-93.459-52.671-14.254-21.7-24.948-45.035-27.914-60.9a42.994,42.994,0,0,1,6.71-31.942c7.4-10.933,22.222-31.208,38.3-44.44a235.7,235.7,0,0,1,57.557-34.672,35.365,35.365,0,0,1,13.352-2.8,32.585,32.585,0,0,1,12.139,2.443c3.987-3.109,10.626-7.233,21.679-7.233a51.7,51.7,0,0,1,8.108.687,42.248,42.248,0,0,1,30.429,21.508,45.8,45.8,0,0,1,2.8,5.979,67.375,67.375,0,0,1,24.853-12.358,81.533,81.533,0,0,1,11.5-2.183c.366-.448.581-.714.946-1.158l-.475-5.149c-.352-3.437-.683-6.946-.923-10.5a18.769,18.769,0,0,1-.215-5.883A14.454,14.454,0,0,1,241.769,0a14.823,14.823,0,0,1,13.568,8.914,24.377,24.377,0,0,1,1.353,4.223l.116.591c.311,1.329.55,2.658.806,3.984.331,1.8.642,3.488,1.042,4.886.287.95.646,2.159,1.025,3.464.683,2.443,2.248,7.848,4.032,12.379,2.012.567,3.984,1.21,5.928,1.92,2.06-2.966,5.976-7.469,12.686-7.78h.523a14.694,14.694,0,0,1,13.424,8.35,14.208,14.208,0,0,1,.615,10.506l-1.175,2.887,3.471,2.826c2.088,1.732,4.059,3.6,5.959,5.5,1.8-.191,3.765-.355,5.689-.379l.427-.024a17.282,17.282,0,0,1,4.623.615,14.773,14.773,0,0,1,10.435,10.127,14.489,14.489,0,0,1-1.4,11.169l.1.1h-.164a2.581,2.581,0,0,1-.239.451,13.738,13.738,0,0,1-2.419,2.846c6.642,15.6,7,31.847.881,46.48" transform="translate(0.001 -0.001)" fill="#fff"/>
    <path id="Path_51" data-name="Path 51" d="M244.728,15.735c1.613,2.183,3.417,3.748,5.456,4.291a7.334,7.334,0,0,0,1.517.167,10.705,10.705,0,0,0,3.84-.806,88.292,88.292,0,0,0-10.814-3.652m20.466,8.371a10.767,10.767,0,0,0-1.162,3.393,15.648,15.648,0,0,0-.307,2.064A75.035,75.035,0,0,1,277.432,40a55.212,55.212,0,0,0,6.994-.618,78.962,78.962,0,0,0-19.232-15.272m28.174,27.559c-.758-1.353-1.589-2.706-2.467-4.008-1.968.448-3.864.922-5.644,1.445a57.894,57.894,0,0,1,3.345,5.241c7.113,12.594,8.395,25.827,3.581,37.3-4.79,11.456-15.129,19.827-29.1,23.6-14.2,3.844-30.425,2.443-45.65-3.936a80.091,80.091,0,0,1-10.363-5.265,2.9,2.9,0,0,0-1.4-.379h-.092L153.8,107.489,189.71,97.55a2.672,2.672,0,0,0,1.281-.782l.048-.048a2.762,2.762,0,0,0,0-3.7c-13.779-14.917-18.382-33.63-12.047-48.783,4.124-9.819,12.283-17.36,23.312-21.675a3.32,3.32,0,0,1,.236-.427,3.687,3.687,0,0,1,3.082-1.589,4.963,4.963,0,0,1,1.684.307c.263-.1.547-.164.806-.236a63.875,63.875,0,0,1,18.378-2.111,21.4,21.4,0,0,0,.69-5.405,68.99,68.99,0,0,0-20.49,2.252c-15.628,4.22-27.248,13.732-32.728,26.773-6.71,16.031-2.774,35.359,10.2,51.3l-32.513,8.986c-.427-5.5-.714-9.816-.714-11.928,0-9.676,5.2-22.577,13.684-42.828,4.7-11.2,4.411-22.98-.83-32.373A28.928,28.928,0,0,0,143.014.51c-12.426-1.968-17.428,2.18-21.081,5.217-1.852,1.517-2.966,2.371-4.435,2.491-1.9.164-3.581-.5-5.668-1.353-3.936-1.589-8.822-3.581-16.885-.284A220.959,220.959,0,0,0,40.829,39.19C26.052,51.354,12.108,70.47,5.111,80.785A29.523,29.523,0,0,0,.488,102.744C3.1,116.762,13.27,138.721,26.407,158.712c20.374,30.948,48,46.624,82.222,46.624,1.09,0,2.18,0,3.3-.048,19.871-.567,33.152-10.766,39.507-30.282,4.032-12.426,2.491-41,1-62.016l52.528-1.848a85.038,85.038,0,0,0,10.363,5.193,81.78,81.78,0,0,0,31.351,6.475,68.259,68.259,0,0,0,17.835-2.3c15.628-4.2,27.248-13.708,32.7-26.749,5.48-13.069,4.1-28.006-3.84-42.093M120.7,160.089c-15.723,6.97-40.956,9.345-64.694-4.958-20.753-12.5-32.182-25.895-38.492-36.78.974-.311,2.04-.618,3.249-.926,20.869-.735,55.517,3.3,66.758,17.384a2.7,2.7,0,0,0,3.844.427,2.7,2.7,0,0,0,.427-3.82c-8.989-11.265-29.219-16.434-47.314-18.45,21.012-2.583,48.213-2.631,68.323,7.233,12.31,6.047,20.445,15.249,24.238,27.3-2.918,4.65-8.75,9.225-16.338,12.594m24.354-96.756c-.451,1.633-.926,3.225-1.305,4.718-1.565,6.047-1.9,19.28-2.3,34.624-.024.854-.024,1.729-.048,2.583l-11.36,3.13a2.731,2.731,0,0,0,.83,5.361l10.294-.355c-.284,9.7-.735,18.9-1.613,25.683-4.91-10.219-13.045-18.214-24.357-23.763C81.425,98.736,30.7,108.272,14.93,113.465,10.212,103.6,9.809,96.7,9.785,96.105a12.879,12.879,0,0,1,.116-1.9C27.548,80.621,49.555,70.682,77.182,63.8c30.449-7.564,60.854-6.471,68.607-3.01-.236.854-.5,1.708-.735,2.539m2.064-7.8c-11.644-4.339-42.237-4.223-71.241,2.99-22.553,5.6-41.5,13.233-57.485,23.192C25.98,75.284,37.6,69.284,49.008,63.4c3.984-2.06,7.992-4.124,11.907-6.235,23.759-12.83,65.19-21.153,79.943-18.262,2.914.595,4.882,1.756,6.024,3.581,1.848,3.061,1.373,7.995.236,13.045" transform="translate(13.448 35.073)" fill="#5d1522"/>
    <path id="Path_52" data-name="Path 52" d="M117.18,63.282a1.461,1.461,0,0,0-1.1-.905,4.181,4.181,0,0,0-1.274-.12c-2.327.031-5.135.4-7.219.653-7.9.97-14.678,2.7-22.933-.15a9.144,9.144,0,0,1-5.48-5.152,15.492,15.492,0,0,1-.557-8.9c.936-5.9,5.733-9.826,9.027-14.384.7-.834.208-1.763-.888-1.756-1.616.079-3.239,3.943-4.534,5.132-3.659,3.724-9.9,7.872-15.481,6.546-9.973-2.586-14.528-22.557-17.179-31.276-.96-3.239-1.37-6.553-2.084-9.778A11.9,11.9,0,0,0,46.828.924C46.325-.3,44.737-.3,44.59.88a20.434,20.434,0,0,0,.294,3.054c.612,9.239,1.941,18.529,2.194,27.791.5,9.276-1.852,18.57-12.826,17.322-3.434-.314-5.614-1.6-8.764-3.177-.946-.41-2.7-1.633-3.458-.635-.731,1.127.786,1.872,1.657,2.347,5.128,2.863,11.593,5.132,13.325,11.442a9.5,9.5,0,0,1-.024,5.788c-1.087,3.024-3.823,4.944-6.55,6.379A64.3,64.3,0,0,1,13.03,77.3c-3.946.683-8.138.383-12.068,1.131A1.042,1.042,0,0,0,.279,80.14a2.018,2.018,0,0,0,1.261.437,39.142,39.142,0,0,0,5.6-.632c9.478-.69,21.036.342,29.6,5.965,5.839,3.953,7.4,9.2,7.646,17.012.2,6.509-.208,13.383-.376,19.9.031,1.35-1.1,4.609,1.428,4.185a1.088,1.088,0,0,0,.673-.516,2.907,2.907,0,0,0,.082-.823c.024-1.182-.027-2.5-.044-3.458l-.007-.014c-.024-.864-.14-1.695-.133-2.562a38.246,38.246,0,0,1,2.053-9.789c.748-2.269,1.609-4.462,2.518-6.645,10.083-23.879,39.07-5.74,51.26,10.243.67.677,1.4,1.192,1.958.612a1.6,1.6,0,0,0,.263-1.288c-.133-.509-.676-.762-.991-1.182-2.091-2.457-4.021-5.04-6.007-7.592-4.612-6.307-11.395-11.565-12.29-19.6-1.3-14.78,20.712-16.858,31.037-19.639.7-.116,1.582-.683,1.363-1.473m-36.6,26.944c.031.2.024.431-.1.5-.106.065-.226.027-.366-.044-8.005-4.589-24.156-7.708-29.072.67-.4.649-.782,1.336-1.237,1.937-.062.068-.126.167-.219.154-.065-.017-.1-.116-.137-.256a20.585,20.585,0,0,0-3.266-7.411,32.672,32.672,0,0,0-5.163-5.607c-2.774-2.088-5.815-2.357-8.866-3.314a4.516,4.516,0,0,1-.594-.243c-.061-.048-.089-.085-.079-.13l0-.007a.527.527,0,0,1,.239-.157A17.2,17.2,0,0,0,42.448,62.51,23.537,23.537,0,0,0,41.173,52.9a.636.636,0,0,1-.041-.345c.02-.113.133-.178.29-.225a16.065,16.065,0,0,0,11.7-12.652c.031-.126.065-.226.116-.232s.126.075.2.2C57.266,46.034,65.455,49.219,72,47.5a.414.414,0,0,1,.389.133.674.674,0,0,1,.106.5c-1.261,7.517,3.478,17.2,10.554,20.917.858.4,1.777.591,2.655.933.2.092.454.15.5.294-6.065,4.237-7.537,12.409-5.627,19.95" transform="translate(196.213 13.452)" fill="#a9ceef"/>
  </g>
</svg>
