<svg xmlns="http://www.w3.org/2000/svg" xmlns:xlink="http://www.w3.org/1999/xlink" width="339.766" height="318.695" viewBox="0 0 339.766 318.695">
  <defs>
    <clipPath id="clip-path">
      <rect id="Rectangle_91" data-name="Rectangle 91" width="339.766" height="318.695" fill="none"/>
    </clipPath>
  </defs>
  <g id="Group_63" data-name="Group 63" clip-path="url(#clip-path)">
    <path id="Path_66" data-name="Path 66" d="M320.92,32.417,130.329,4.194S110.708,1.28,103.564.213A24.07,24.07,0,0,0,100.294,0C88.848,0,79.464,8.033,78.007,18.8c-1.209,8.033-2.381,16.1-3.554,24.135l-8.566,57.583c-1.422,9.7-2.879,19.443-4.3,29.147A21.1,21.1,0,0,0,49.607,146.3a25.522,25.522,0,0,0,.249,7.713c.284,4.159.675,8.317,1.1,12.512.391,4.088.746,8,1,11.8a22.973,22.973,0,0,0-6.469-.96,21.128,21.128,0,0,0-16.955,8.389l-.462.6-.427.675a21.239,21.239,0,0,0-2.772,16.742,20.8,20.8,0,0,0,5.687,9.953c-.96.107-2.239.178-3.554.249a74.432,74.432,0,0,0-9.49.96l-.533.107A21.438,21.438,0,0,0,.875,229.94a21.166,21.166,0,0,0,5.332,20.971,22.074,22.074,0,0,0,14.467,6.327c.533.036,1.066.071,1.635.071a41.25,41.25,0,0,0,6.86-.675c.284-.036.533-.107.818-.142q1.813-.107,3.732-.107a45.928,45.928,0,0,1,8.922.818c-.142.96-.249,1.884-.355,2.808l-.107.711a22.643,22.643,0,0,0,6.718,19.8l-.071,2.31c-.391,3.092-1.28,11.445,5.118,18.732a21.344,21.344,0,0,0,16.137,7.251,22.469,22.469,0,0,0,3.768-.32l1.422-.213,1.351-.462a21.372,21.372,0,0,0,12.405-10.166l.711-1.351.5-1.422a19,19,0,0,0,.853-3.057l42.441,5.261,72.4,10.7,45.462,6.754,26.516,3.91a28.669,28.669,0,0,0,2.879.249h1.137a21.874,21.874,0,0,0,21.753-18.768l3.59-24.17,8.531-57.583q5.172-34.976,10.344-69.952L335.1,87.973c.462-3.235.96-6.5,1.493-9.739,1.031-6.4,2.062-12.974,2.844-19.692l.071-.462c1.813-12.476-6.256-23.708-18.59-25.663M76.976,175.378l.107-.569.569-.036Zm101.872-46.813c0-.036.036-.071.036-.107a.783.783,0,0,0,.284-.036,1.262,1.262,0,0,0-.32.142m8.353-1.351a.473.473,0,0,1,.107-.284,4.53,4.53,0,0,1,1,.071c-.355.071-.746.142-1.1.213" transform="translate(0 0)" fill="#fff"/>
    <path id="Path_67" data-name="Path 67" d="M22.331,49.17l-.675.6.107-.569Z" transform="translate(55.32 125.604)" fill="#fff"/>
    <path id="Path_68" data-name="Path 68" d="M135.632,111.748a1.648,1.648,0,0,0-1.23-1,4.422,4.422,0,0,0-1.415-.132c-2.595.028-5.712.448-8.019.707-.235.028-.469.053-.707.082-8.46,1.1-15.8,2.854-24.707-.238a10.263,10.263,0,0,1-5.293-4.191,8.442,8.442,0,0,1-.786-1.521,13.6,13.6,0,0,1-.889-3.327,19.49,19.49,0,0,1,.259-6.551c1.049-6.551,6.366-10.9,10.009-15.956.786-.917.235-1.937-.97-1.937-1.806.078-3.59,4.376-5.03,5.684C93.792,86.494,89.1,89.9,84.3,90.709a11.246,11.246,0,0,1-4.585-.078h-.05C72.8,88.85,68.271,79.655,65.1,70.616c-1.23-3.487-2.254-6.945-3.117-9.96-.5-1.752-.945-3.352-1.361-4.713-1.049-3.59-1.521-7.258-2.307-10.823a13.8,13.8,0,0,0-.707-2.513c-.551-1.365-2.332-1.365-2.488-.053a21.283,21.283,0,0,0,.341,3.38c.654,10.244,2.147,20.541,2.41,30.81.547,10.3-2.044,20.595-14.2,19.233-3.825-.366-6.235-1.781-9.718-3.537-1.049-.448-3.014-1.809-3.853-.707-.81,1.258.892,2.094,1.834,2.62,5.687,3.171,12.864,5.684,14.776,12.682a10.279,10.279,0,0,1-.025,6.419c-1.2,3.352-4.244,5.474-7.258,7.073-6.1,2.986-12.473,5.605-19.308,6.761-4.376.757-9.014.444-13.39,1.255a1.153,1.153,0,0,0-.736,1.912,2.172,2.172,0,0,0,1.39.473c1.834.107,4.244-.5,6.21-.707,10.507-.761,23.346.395,32.829,6.629a19.517,19.517,0,0,1,3.7,3.2,17.17,17.17,0,0,1,3.668,7v.028a36.892,36.892,0,0,1,1.127,8.645v.682c.05,1.521.05,3.064.025,4.61-.025,5.581-.288,11.293-.444,16.77.025,1.493-1.233,5.108,1.571,4.639a1.232,1.232,0,0,0,.761-.576,1.61,1.61,0,0,0,.078-.6v-.288c.025-1.312-.028-2.776-.053-3.853-.025-.967-.156-1.884-.156-2.854a43.488,43.488,0,0,1,2.278-10.848c.185-.576.395-1.152.6-1.7.523-1.468,1.073-2.936,1.678-4.351.156-.444.338-.864.523-1.308,10.82-25.624,41.214-7.653,55.443,9.59.5.576.967,1.177,1.415,1.756.732.757,1.543,1.337,2.147.679a1.7,1.7,0,0,0,.313-1.415,1.8,1.8,0,0,0-.259-.5c-.263-.288-.6-.523-.839-.81-2.332-2.726-4.482-5.609-6.682-8.438-5.108-7-12.629-12.81-13.624-21.721-1.44-16.4,22.98-18.707,34.429-21.8a2.088,2.088,0,0,0,.917-.366,1.092,1.092,0,0,0,.6-1.258m-40.61,29.9c.053.21.025.473-.1.551-.107.078-.238.025-.395-.053-8.883-5.083-26.8-8.541-32.253.732a24.335,24.335,0,0,1-1.361,2.15c-.078.078-.156.181-.263.181-.053-.025-.107-.128-.132-.288a23.132,23.132,0,0,0-3.643-8.225c-.391-.526-.835-1.1-1.308-1.653a31.215,31.215,0,0,0-3.981-4.216c-.16-.132-.291-.238-.419-.341-3.092-2.307-6.448-2.62-9.828-3.668a2.483,2.483,0,0,1-.654-.288c-.078-.053-.1-.078-.1-.131a.517.517,0,0,1,.288-.185c6.1-2.3,11.239-8.566,11.868-15.3a26.149,26.149,0,0,0-1.39-10.667.525.525,0,0,1-.053-.391c.028-.132.132-.185.316-.263a17.3,17.3,0,0,0,10.3-7.468,19.032,19.032,0,0,0,2.673-6.551c.025-.128.078-.259.132-.259.05-.028.128.078.235.235a19.709,19.709,0,0,0,14.2,9.068,16.787,16.787,0,0,0,4.585,0c.6-.107,1.2-.21,1.781-.37a.487.487,0,0,1,.448.16.787.787,0,0,1,.1.547,18.352,18.352,0,0,0,.078,6.21,21.463,21.463,0,0,0,1.365,4.8c1.962,5.111,5.659,9.775,10.269,12.185.942.444,1.966.654,2.936,1.049.235.1.5.156.547.313-6.707,4.717-8.357,13.756-6.235,22.141" transform="translate(14.474 106.206)" fill="#a9ceef"/>
    <path id="Path_69" data-name="Path 69" d="M262.259,37.87Q225.315,32.405,188.4,26.944,130.035,18.3,71.646,9.651,58.365,7.689,45.026,5.7c-1.1-.156-2.62.263-2.8,1.624Q40.414,19.348,38.66,31.426q-4.287,28.807-8.541,57.59-4.169,28.1-8.307,56.2v.025c.132.526.263,1.077.419,1.6.341,1.1.707,2.357,1.1,3.746.448,1.546.945,3.3,1.5,5.161q4.244-28.573,8.463-57.117,4.479-30.1,8.932-60.238c1-6.679,1.966-13.361,2.961-20.044.316-2.044.6-4.088.917-6.128.078-.5.235-1.1.341-1.706q35.605,5.268,71.239,10.56,58.366,8.648,116.726,17.268c8.229,1.23,16.429,2.435,24.657,3.668q-1.615,10.765-3.2,21.59-4.281,28.765-8.541,57.561-5.188,34.981-10.347,69.984-4.484,30.1-8.936,60.234c-1.361,9.277-3.039,18.551-4.137,27.878Q188.212,274,152.581,268.7q-34.9-5.188-69.775-10.322a4.67,4.67,0,0,1-1,3.327,4.376,4.376,0,0,1-1.23.942c.419.053.864.132,1.283.185q58.361,8.643,116.751,17.293,13.287,1.962,26.62,3.928a2.065,2.065,0,0,0,.419-.025,1.827,1.827,0,0,0,2.385-1.571c1.2-8.044,2.385-16.088,3.59-24.107q4.244-28.807,8.517-57.59,5.188-34.976,10.347-69.956,4.484-30.146,8.936-60.238c1.44-9.8,3.249-19.624,4.351-29.449.025-.156.05-.288.078-.419.156-1.1-.263-2.62-1.6-2.829" transform="translate(55.718 14.469)" fill="#5d1522"/>
    <path id="Path_70" data-name="Path 70" d="M75.493,85.826l-.135-.156c-1.073-1.415-2.278-2.829-3.562-4.244q-17.808-2.634-35.584-5.268-6.4-.944-12.839-1.887c-.654,1.575-1.2,3.014-1.7,4.351q27.437,4.047,54.839,8.122a9.954,9.954,0,0,1-.889-.786Z" transform="translate(55.358 189.722)" fill="#5d1522"/>
    <path id="Path_71" data-name="Path 71" d="M22.1,64.355a27.924,27.924,0,0,1,.263,6.444,20.85,20.85,0,0,1-2.332,7.521c-.448,2.932-.867,5.893-1.312,8.829v.025c.288.185.576.395.864.6a28.562,28.562,0,0,1,3.2,3.039Q25.26,74.077,27.737,57.36a19.933,19.933,0,0,1-5.111,3.434c-.156,1.177-.338,2.381-.523,3.562" transform="translate(47.828 146.525)" fill="#5d1522"/>
    <path id="Path_72" data-name="Path 72" d="M19.309,70.459c-.654,4.219-1.258,8.438-1.731,12.682-.025.132-.05.288-.078.419-.156,1.1.263,2.62,1.624,2.829.892.131,1.809.259,2.7.391,0-1.624,0-3.2-.053-4.767-.156-5.161-.864-8.751-2.463-11.556" transform="translate(44.622 179.986)" fill="#5d1522"/>
    <path id="Path_73" data-name="Path 73" d="M26.05,61.731c-.156,1.127.263,2.62,1.6,2.829,1.518.235,3.011.444,4.532.682a25.243,25.243,0,0,1-1.059-4.568l-.156-1.354c-.06-.629-.1-1.258-.1-1.887-.469.025-.942.053-1.44.053a24.176,24.176,0,0,1-2.726-.156c-.21,1.464-.444,2.932-.654,4.4" transform="translate(66.466 146.451)" fill="#5d1522"/>
    <path id="Path_74" data-name="Path 74" d="M21.763,83.589l-.107.569.675-.6ZM131.987,35.71a.473.473,0,0,0-.107.284c.355-.071.746-.142,1.1-.213a4.53,4.53,0,0,0-1-.071" transform="translate(55.32 91.221)" fill="#fff"/>
    <path id="Path_75" data-name="Path 75" d="M224.678,39.115l-58.873-8.723q-46.733-6.921-93.458-13.834c-7.155-1.073-14.307-2.122-21.458-3.2-1.1-.16-2.623.259-2.833,1.624q-3.967,26.877-7.962,53.79-6.329,42.878-12.682,85.731-.395,2.671-.786,5.342c.078.028.181.053.263.078a8.133,8.133,0,0,0,1.7.185,10.437,10.437,0,0,0,2.645-.366c1.859-12.736,3.775-25.443,5.659-38.175q6.329-42.878,12.682-85.731c.864-5.893,1.756-11.79,2.62-17.687q28.178,4.207,56.36,8.36,46.727,6.915,93.458,13.834,9.746,1.456,19.468,2.883-3.775,25.662-7.571,51.273-6.371,42.878-12.707,85.731-1.3,8.845-2.623,17.659c-5.421-.81-10.82-1.6-16.244-2.41v-.341c-.288-21.59-19.073-30.81-36.732-37.6-1.7-1.39-2.254-3.643-2.463-5.765-.132-1.415-.156-7.887.444-8.8.235-.391,3.434-2.62,4.194-3.3a47.171,47.171,0,0,0,10.976-15.43c6.131.889,10.272-5.531,12.316-10.454,2.723-6.526,3.878-14.858-2.751-19.39a45.958,45.958,0,0,0,1.283-17.321c-1.073-7.674-5.609-14.488-13.575-16.166-2.7-6.576-8.829-10.976-15.22-13.624-13.862-5.762-31.415-6.313-43.6,3.327C92.938,54,89.562,58.242,83.4,57.9c-1.6-.078-4.088-1.2-4.873.917-1.6,4.425,4.717,10.191,8.41,11.712a32.34,32.34,0,0,0-1.727,11.605C76.46,84.68,75.856,95.5,77.4,103.021c.867,4.244,3.171,9.746,8.044,10.376a48.553,48.553,0,0,0,9.487,22.82c-.786,3.409-1.415,7.39-3.409,10.351-2.645,3.931-4.82,2.854-8.879,3.2-2.41.206-4.841.508-7.255.91-.11.014-.2.021-.313.039C52.265,154,41.733,168.26,42.134,174.733a2.823,2.823,0,0,0,.185.682v.025a6.652,6.652,0,0,0,.341,1.024,3.811,3.811,0,0,0,.366.707,6.839,6.839,0,0,0,2.488,2.673l14.307,2.122c2.307-.185,4.639-.5,7.049-.867,1.39-.181,2.776-.391,4.191-.547l.274-.039.828-.092c.85-.1,1.8-.21,2.758-.309.483-.046.967-.092,1.457-.132,1.034-.085,2.069-.153,3.043-.164,0-.025.181-.025.341-.025a7.547,7.547,0,0,1,1.912.263,4.708,4.708,0,0,1,1.742.874,4.207,4.207,0,0,1,.718.7,2.963,2.963,0,0,1,.238.277,3.979,3.979,0,0,1,.576,1.184,3.89,3.89,0,0,1-.156,2.566c.053,0,.132.025.185.025q46.727,6.921,93.458,13.834c7.152,1.049,14.307,2.122,21.458,3.171a2.064,2.064,0,0,0,.419,0,1.847,1.847,0,0,0,2.41-1.6q3.972-26.883,7.966-53.794,6.329-42.878,12.682-85.727l2.908-19.653c.181-1.1-.263-2.62-1.6-2.8M90.607,116.3c-.338-1.678-.469-6.313-1.966-7.02-1.6-.786-3.089.132-4.557-1.624-3.171-3.8-4.063-16.614.078-19.834.682-.526,2.332-1.1,2.908-.316.473.6-.288,1.863.839,2.883a2.086,2.086,0,0,0,3.459-1.073c.786-2.829.892-6.473,1.624-9.512.526-2.229,1.312-4.429,2.044-6.6a2.7,2.7,0,0,0,.892.366c9.092,1.624,15.2,1.1,24-1.312,10.717-2.932,26.516-11.815,36.1-2.278,6.707,6.629,4.692,18.942,3.96,27.38a13.462,13.462,0,0,0,0,2.932,2.257,2.257,0,0,0,3.562.867c.864-1,1.073-3.512,3.3-1.863,4.663,3.434-.814,17.9-5.477,20.1-2.254,1.073-4.507-1.39-6.156,1.44-.682,1.209-1.18,2.858-1.887,4.194-6.1,11.712-20.435,22.507-34.219,21.117-14.225-1.415-25.727-16.688-28.507-29.843m8.019,24.263,4.429,3.668c10.269,8.2,24.263,8.438,35.474,2.019-.181,3.693-.235,7.543,1.258,11,.526,1.258,1.415,2.307,2.019,3.512-4.742,4.088-11.609,6.156-17.819,6.366-11.84.419-26.015-3.9-33.17-13.834,4.663-2.435,6.736-7.834,7.809-12.732" transform="translate(68.016 34.054)" fill="#5d1522"/>
    <path id="Path_76" data-name="Path 76" d="M54.9,46.829c-1.041-1.1-2.239-3.864-4-3.611a2,2,0,0,0-1.031.857c-1.3,2.73,2.126,6.135,4.141,7.663a17.914,17.914,0,0,0,17.239,2.474c1.9-.789,7.219-4.184,5.595-6.665-1.408-2.154-4.891,1.656-6.533,2.413A13.954,13.954,0,0,1,54.9,46.829" transform="translate(126.655 110.357)" fill="#5d1522"/>
    <path id="Path_77" data-name="Path 77" d="M50.636,36.13a1.262,1.262,0,0,0-.32.142c0-.036.036-.071.036-.107a.783.783,0,0,0,.284-.036" transform="translate(128.531 92.294)" fill="#fff"/>
    <path id="Path_78" data-name="Path 78" d="M53.768,35.781c-.355.071-.746.142-1.1.213a.473.473,0,0,1,.107-.284,4.53,4.53,0,0,1,1,.071" transform="translate(134.534 91.221)" fill="#fff"/>
    <path id="Path_79" data-name="Path 79" d="M53.115,37.088a12.3,12.3,0,0,1,5.758.341c1.546.483,5.207,2.989,5.669-.139.494-3.352-6.562-4.66-8.89-4.752a12.133,12.133,0,0,0-6.476,1.731c-.921.643-1.589,1.3-1.368,2.5.491,2.687,3.754.633,5.307.316" transform="translate(122.018 83.103)" fill="#5d1522"/>
    <path id="Path_80" data-name="Path 80" d="M53.768,35.781c-.355.071-.746.142-1.1.213a.473.473,0,0,1,.107-.284,4.53,4.53,0,0,1,1,.071" transform="translate(134.534 91.221)" fill="#fff"/>
    <path id="Path_81" data-name="Path 81" d="M62.859,38.2a13.865,13.865,0,0,1,5.282,1.251c1.255.661,3.814,3.65,5.072,1.5,1.162-1.987-.75-3.636-2.246-4.706a13.611,13.611,0,0,0-7.621-2.367c-1.962-.089-6.007.341-6.075,2.908-.075,2.886,3.96,1.336,5.588,1.415" transform="translate(146.297 86.503)" fill="#5d1522"/>
    <path id="Path_82" data-name="Path 82" d="M53.768,35.781c-.355.071-.746.142-1.1.213a.473.473,0,0,1,.107-.284,4.53,4.53,0,0,1,1,.071" transform="translate(134.534 91.221)" fill="#fff"/>
    <path id="Path_83" data-name="Path 83" d="M61.241,37c-2.709.156-3.405,4.649-3.462,6.736-.11,4.2,4.71,5.278,6.3,1.326,1.1-2.733,1.386-8.3-2.84-8.062" transform="translate(147.592 94.49)" fill="#5d1522"/>
    <path id="Path_84" data-name="Path 84" d="M50.636,36.13a1.262,1.262,0,0,0-.32.142c0-.036.036-.071.036-.107a.783.783,0,0,0,.284-.036" transform="translate(128.531 92.294)" fill="#fff"/>
    <path id="Path_85" data-name="Path 85" d="M53.768,35.781c-.355.071-.746.142-1.1.213a.473.473,0,0,1,.107-.284,4.53,4.53,0,0,1,1,.071" transform="translate(134.534 91.221)" fill="#fff"/>
    <path id="Path_86" data-name="Path 86" d="M55.408,43.409c.711-2.755,1.287-7.948-2.95-7.71-2.641.153-3.366,4.479-3.43,6.53-.153,4.731,5.275,5.445,6.38,1.18" transform="translate(125.231 91.174)" fill="#5d1522"/>
    <path id="Path_87" data-name="Path 87" d="M53.768,35.781c-.355.071-.746.142-1.1.213a.473.473,0,0,1,.107-.284,4.53,4.53,0,0,1,1,.071" transform="translate(134.534 91.221)" fill="#fff"/>
    <path id="Path_88" data-name="Path 88" d="M52.264,43.675c.825,3.338,9.643,4.528,10.816,1.5,1.376-3.54-3.761-2.438-5.6-2.79-1.255-.242-2.787-1.162-4.045-.988-1,.139-1.4,1.358-1.173,2.275" transform="translate(133.348 105.699)" fill="#5d1522"/>
  </g>
</svg>
