<?xml version="1.0" encoding="UTF-8"?>
<svg id="Laag_1" data-name="Laag 1" xmlns="http://www.w3.org/2000/svg" viewBox="0 0 190.09 178">
  <defs>
    <style>
      .cls-1 {
        fill: #bbd7f2;
      }

      .cls-2 {
        fill: #fffefc;
      }

      .cls-3 {
        fill: #72202e;
      }
    </style>
  </defs>
  <path class="cls-3" d="M72.18,157.3h0c-.6-.9-1.3-1.8-2.1-2.6-7-1-13.9-2.1-20.9-3.1-2.5-.4-5-.7-7.5-1.1-.4.9-.7,1.8-1,2.6,10.7,1.6,21.5,3.2,32.2,4.8-.2-.2-.4-.3-.5-.5h0l-.2-.1Z"/>
  <path class="cls-3" d="M36.38,119.4c.2,1.2.2,2.5.2,3.8-.2,1.5-.6,3-1.4,4.4-.3,1.7-.5,3.5-.8,5.2h0c.2.1.3.2.5.4.6.5,1.3,1.1,1.9,1.8,1-6.6,1.9-13.1,2.9-19.6-.9.8-1.9,1.5-3,2,0,.7-.2,1.4-.3,2.1v-.1Z"/>
  <path class="cls-3" d="M32.88,142.6c-.4,2.5-.7,5-1,7.4v.2c0,.6.2,1.5,1,1.7.5,0,1.1.2,1.6.2v-2.8c0-3-.5-5.1-1.4-6.8l-.2.1Z"/>
  <path class="cls-2" d="M189.98,30.4v.3h0c-.4,3.8-1,7.6-1.6,11.3-.3,1.9-.6,3.8-.9,5.6-.9,6-5.1,34.7-5.1,34.7-2,13.4-4,26.8-5.9,40.3l-2.3,15.3c-.9,5.9-1.8,11.9-2.6,17.8-.4,2.5-.7,4.9-1.1,7.4-.3,2.2-.6,4.3-1,6.5-.7,4.9-4.9,8.4-9.8,8.4s-.4,0-.6,0c-.4,0-.9,0-1.3-.1l-15.3-2.3-65.1-9.6-2.7-.4-27.4-3.7v.9c0,.5,0,1.8-.6,3.4l-.2.6-.3.5c-1.2,2.2-3.2,3.8-5.6,4.6l-.6.2h-.6c-.6.2-1.2.2-1.7.2-2.8,0-5.4-1.2-7.2-3.2-3-3.4-2.4-7.4-2.3-8.7v-2.7h0c-2.9-2.2-4.5-5.9-3.9-9.9v-.2h0c.1-1.3.3-2.6.5-4.1-2.2-.8-5.1-1.2-8.2-1.2s-1.6,0-2.4,0h-.6c-1,.2-2.2.4-3.5.4s-.5,0-.8,0c-3.2-.2-5.3-1.6-6.5-2.8-2.4-2.5-3.4-6-2.4-9.3,1-3.4,3.7-5.9,7.2-6.7h.3c1.9-.4,3.6-.5,5.1-.6,1,0,2-.1,2.7-.2,2-.3,3.9-1,5.6-1.7-.5-.3-1.1-.6-1.6-.9-2.9-1.6-4.7-3.8-5.4-6.5-.6-2.5-.2-5.2,1.3-7.5l.2-.3.2-.3c1.8-2.4,4.5-3.7,7.5-3.7s4.4,1,5.3,1.4h.1s1.2.6,1.3.7v-1.5c0-3.2-.4-6.5-.7-9.9-.2-2.4-.5-4.8-.6-7.3h0c-.1-.7-.4-2.1-.2-3.8.5-3.8,3.1-6.9,6.7-7.9.9-6.1,1.8-12.3,2.7-18.4.8-5.5,4.1-27.6,4.9-33.1.7-4.7,1.4-9.3,2-13.9.7-4.9,4.9-8.5,10.1-8.5s1,0,1.5.1c4.4.7,8.7,1.3,13,1.9l69.5,10.3,42.5,6.3c5.5.9,9.2,6,8.4,11.6v.2Z"/>
  <path class="cls-1" d="M83.68,122.8c0-.2-.3-.5-.7-.6h-.8c-1.5,0-3.3.3-4.6.4h-.4c-4.9.6-9.1,1.6-14.2-.1-1.3-.4-2.4-1.3-3-2.4-.2-.3-.3-.6-.5-.9-.3-.6-.4-1.3-.5-1.9-.2-1.3,0-2.6.2-3.8.6-3.8,3.7-6.3,5.8-9.2.5-.5.1-1.1-.6-1.1-1,0-2.1,2.5-2.9,3.3-1.8,1.8-4.5,3.8-7.2,4.2-.9.2-1.8.2-2.6,0h0c-4-1-6.6-6.3-8.4-11.5-.7-2-1.3-4-1.8-5.7-.3-1-.5-1.9-.8-2.7-.6-2.1-.9-4.2-1.3-6.2-.1-.5-.2-1-.4-1.4-.3-.8-1.3-.8-1.4,0,0,.6.2,1.3.2,1.9.4,5.9,1.2,11.8,1.4,17.7.3,5.9-1.2,11.9-8.2,11.1-2.2-.2-3.6-1-5.6-2-.6-.3-1.7-1-2.2-.4-.5.7.5,1.2,1.1,1.5,3.3,1.8,7.4,3.3,8.5,7.3.4,1.3.4,2.7,0,3.7-.7,1.9-2.4,3.2-4.2,4.1-3.5,1.7-7.2,3.2-11.1,3.9-2.5.4-5.2.3-7.7.7-.5.1-.8.7-.4,1.1.2.2.5.3.8.3,1.1,0,2.4-.3,3.6-.4,6-.4,13.4.2,18.9,3.8.8.6,1.5,1.2,2.1,1.8,1,1.2,1.7,2.5,2.1,4h0c.4,1.5.6,3.1.6,5v3.1c0,3.2-.2,6.5-.3,9.7,0,.9-.7,2.9.9,2.7.2,0,.3-.2.4-.3v-4.3c.1-2.2.7-4.2,1.3-6.2.1-.3.2-.7.3-1,.3-.8.6-1.7,1-2.5,0-.3.2-.5.3-.8,6.2-14.7,23.7-4.4,31.9,5.5.3.3.6.7.8,1,.4.4.9.8,1.2.4.2-.2.2-.6.2-.8,0-.1,0-.2-.2-.3l-.5-.5c-1.3-1.6-2.6-3.2-3.8-4.9-2.9-4-7.3-7.4-7.8-12.5-.8-9.4,13.2-10.8,19.8-12.5.2,0,.4,0,.5-.2.3-.2.4-.4.3-.7l-.1-.4ZM60.28,140v.3h-.2c-5.1-2.9-15.4-4.9-18.6.4-.3.4-.5.9-.8,1.2,0,0,0,.1-.2.1v-.2c-.4-1.6-1.1-3.3-2.1-4.7-.2-.3-.5-.6-.8-1-.7-.9-1.5-1.8-2.3-2.4,0,0-.2-.1-.2-.2-1.8-1.3-3.7-1.5-5.7-2.1-.1,0-.3,0-.4-.2h0l.2-.1c3.5-1.3,6.5-4.9,6.8-8.8.2-2-.1-4.1-.8-6.1v-.2s0-.1.2-.2c1-.3,2-.7,2.8-1.2,1.3-.8,2.3-1.8,3.1-3.1.7-1.1,1.3-2.4,1.5-3.8v-.2l.1.1c1.8,2.9,5,4.8,8.2,5.2.9.1,1.8.1,2.6,0,.3,0,.7-.1,1-.2h.3v.3c-.2,1.1-.2,2.4,0,3.6.2.9.4,1.9.8,2.8,1.1,2.9,3.3,5.6,5.9,7,.5.3,1.1.4,1.7.6.1,0,.3,0,.3.2-3.9,2.7-4.8,7.9-3.6,12.7l.2.2Z"/>
  <path class="cls-3" d="M165.78,39.5c-11.3-1.7-22.6-3.3-33.9-5-17.9-2.7-35.9-5.3-53.8-8-4.1-.6-8.2-1.2-12.4-1.8-.6,0-1.5.2-1.6.9-1.5,10.3-3,20.6-4.6,31-2.4,16.5-4.9,32.9-7.3,49.3-.2,1-.3,2.1-.5,3.1h.2c.3,0,.6.1,1,.1s1,0,1.5-.2c1.1-7.3,2.2-14.6,3.3-22,2.4-16.5,4.9-32.9,7.3-49.3.5-3.4,1-6.8,1.5-10.2,10.8,1.6,21.6,3.2,32.4,4.8,17.9,2.7,35.9,5.3,53.8,8,3.7.6,7.5,1.1,11.2,1.7-1.4,9.8-2.9,19.7-4.4,29.5-2.4,16.5-4.9,32.9-7.3,49.3-.5,3.4-1,6.8-1.5,10.2-3.1-.5-6.2-.9-9.3-1.4v-.2c-.2-12.4-11-17.7-21.1-21.6-1-.8-1.3-2.1-1.4-3.3,0-.8,0-4.5.3-5.1.1-.2,2-1.5,2.4-1.9,2.6-2.4,4.9-5.6,6.3-8.9,3.5.5,5.9-3.2,7.1-6,1.6-3.8,2.2-8.6-1.6-11.2.8-3.3,1.2-6.6.7-10-.6-4.4-3.2-8.3-7.8-9.3-1.6-3.8-5.1-6.3-8.8-7.8-8-3.3-18.1-3.6-25.1,1.9-2.5,1.9-4.4,4.4-7.9,4.2-.9,0-2.4-.7-2.8.5-.9,2.5,2.7,5.9,4.8,6.7-.8,2.1-1,4.4-1,6.7-5,1.5-5.4,7.7-4.5,12,.5,2.4,1.8,5.6,4.6,6,.6,4.8,2.6,9.3,5.5,13.1-.5,2-.8,4.3-2,6-1.5,2.3-2.8,1.6-5.1,1.8-1.4.1-2.8.3-4.2.5h-.2c-13.1,1.9-19.2,10.1-19,13.8,0,.1,0,.3.1.4h0c0,.2.1.4.2.6,0,.1.1.3.2.4.3.6.8,1.2,1.4,1.5,2.7.4,5.5.8,8.2,1.2,1.3-.1,2.7-.3,4.1-.5.8-.1,1.6-.2,2.4-.3h.7c.5,0,1-.1,1.6-.2h2.8c.4,0,.8,0,1.1.2.4,0,.7.3,1,.5.2.1.3.3.4.4,0,0,0,.1.1.2.1.2.3.4.3.7.1.5.1,1,0,1.5h.1c17.9,2.7,35.9,5.3,53.8,8,4.1.6,8.2,1.2,12.4,1.8h.2c.6.1,1.3-.1,1.4-.9,1.5-10.3,3.1-20.6,4.6-31,2.4-16.5,4.9-32.9,7.3-49.3l1.7-11.3c.1-.6-.2-1.5-.9-1.6v-.2ZM88.58,83.9c-.2-1-.3-3.6-1.1-4-.9-.5-1.8,0-2.6-.9-1.8-2.2-2.3-9.6,0-11.4.4-.3,1.3-.6,1.7-.2.3.3-.2,1.1.5,1.7s1.7.3,2-.6c.5-1.6.5-3.7.9-5.5.3-1.3.8-2.5,1.2-3.8.2.1.3.2.5.2,5.2.9,8.7.6,13.8-.8,6.2-1.7,15.3-6.8,20.8-1.3,3.9,3.8,2.7,10.9,2.3,15.8v1.7c.3.8,1.5,1.1,2.1.5.5-.6.6-2,1.9-1.1,2.7,2-.5,10.3-3.2,11.6-1.3.6-2.6-.8-3.5.8-.4.7-.7,1.6-1.1,2.4-3.5,6.7-11.8,13-19.7,12.2-8.2-.8-14.8-9.6-16.4-17.2l-.1-.1ZM93.18,97.9l2.5,2.1c5.9,4.7,14,4.9,20.4,1.2-.1,2.1-.1,4.3.7,6.3.3.7.8,1.3,1.2,2-2.7,2.4-6.7,3.5-10.3,3.7-6.8.2-15-2.2-19.1-8,2.7-1.4,3.9-4.5,4.5-7.3h.1Z"/>
  <path class="cls-3" d="M101.78,87.9c-.6-.6-1.3-2.2-2.3-2.1-.2,0-.5.3-.6.5-.7,1.6,1.2,3.5,2.4,4.4,2.8,2.1,6.7,2.8,9.9,1.4,1.1-.5,4.2-2.4,3.2-3.8-.8-1.2-2.8,1-3.8,1.4-2.9,1.3-6.7.5-8.9-1.8h.1Z"/>
  <path class="cls-3" d="M98.08,66.6c1-.2,2.3-.1,3.3.2.9.3,3,1.7,3.3,0,.3-1.9-3.8-2.7-5.1-2.7-1.1,0-2.8.3-3.7,1-.5.4-.9.7-.8,1.4.3,1.5,2.2.4,3.1.2l-.1-.1Z"/>
  <path class="cls-3" d="M117.68,69.2c.9,0,2.2.3,3,.7.7.4,2.2,2.1,2.9.9.7-1.1-.4-2.1-1.3-2.7-1.3-.9-2.8-1.3-4.4-1.4-1.1,0-3.5.2-3.5,1.7,0,1.7,2.3.8,3.2.8h.1Z"/>
  <path class="cls-3" d="M117.48,73.1c-1.6,0-2,2.7-2,3.9,0,2.4,2.7,3,3.6.8.6-1.6.8-4.8-1.6-4.6v-.1Z"/>
  <path class="cls-3" d="M101.28,74.9c.4-1.6.7-4.6-1.7-4.4-1.5,0-1.9,2.6-2,3.8,0,2.7,3,3.1,3.7.7v-.1Z"/>
  <path class="cls-3" d="M104.18,83.4c.5,1.9,5.5,2.6,6.2.9.8-2-2.2-1.4-3.2-1.6-.7-.1-1.6-.7-2.3-.6-.6,0-.8.8-.7,1.3Z"/>
  <path class="cls-3" d="M180.28,27.5c-14.2-2.1-28.3-4.2-42.5-6.3-22.4-3.3-44.8-6.6-67.2-10-5.1-.8-10.2-1.5-15.3-2.3-.6,0-1.5.2-1.6.9-.7,4.6-1.4,9.2-2.1,13.9-1.6,11.1-3.3,22.1-4.9,33.1-1.6,10.8-3.2,21.6-4.8,32.3h0c0,.3.2.6.2.9.2.6.4,1.4.6,2.2.3.9.5,1.9.9,3,1.6-11,3.3-21.9,4.9-32.9,1.7-11.6,3.4-23.1,5.1-34.7.6-3.8,1.1-7.7,1.7-11.5.2-1.2.3-2.4.5-3.5,0-.3.1-.6.2-1,13.7,2,27.3,4,41,6.1,22.4,3.3,44.8,6.6,67.2,9.9,4.7.7,9.5,1.4,14.2,2.1-.6,4.1-1.2,8.3-1.8,12.4-1.6,11-3.3,22.1-4.9,33.1-2,13.4-4,26.8-6,40.3-1.7,11.6-3.4,23.1-5.1,34.7-.8,5.3-1.7,10.7-2.4,16-13.7-2-27.4-4.1-41-6.1-13.4-2-26.8-4-40.2-5.9,0,.7-.2,1.4-.6,1.9-.2.2-.5.4-.7.5.2,0,.5,0,.7.1,22.4,3.3,44.8,6.6,67.2,10,5.1.8,10.2,1.5,15.3,2.3h.2c.6.1,1.3-.1,1.4-.9.7-4.6,1.4-9.3,2.1-13.9,1.6-11.1,3.3-22.1,4.9-33.1,2-13.4,4-26.8,6-40.3,1.7-11.6,3.4-23.1,5.1-34.7.8-5.6,1.9-11.3,2.5-16.9v-.2c0-.6-.2-1.5-.9-1.6l.1.1Z"/>
  <path class="cls-3" d="M50.58,117.2c0,.6.2,1.5.9,1.6.9.1,1.7.3,2.6.4-.3-.9-.5-1.7-.6-2.6v-.8c-.1-.4-.1-.7-.1-1.1h-2.4c-.1.8-.3,1.7-.4,2.5Z"/>
</svg>